<svg xmlns="http://www.w3.org/2000/svg" viewBox="0 0 629 793"><title>background_board</title><polygon points="46.51 459.67 199.4 459.67 199.4 466.85 201.39 479.32 203.79 489.49 206.89 498.78 210.6 507.44 213.81 513.63 219.92 523.41 225.21 530.42 230.73 536.7 235.28 541.25 241.53 546.75 249.09 552.42 256.59 557.18 264.9 561.55 271.33 564.37 278.72 567.04 288.03 569.63 294.79 570.98 301.85 571.95 307.75 572.42 314.04 572.59 319.11 572.48 324.51 572.12 330.43 571.43 335.5 570.58 340.93 569.42 346.71 567.87 351.07 566.48 357.57 564.03 363.06 561.61 367.54 559.36 372.34 556.68 376.92 553.82 381.55 550.61 385.66 547.46 390.39 543.46 394.52 539.59 397.63 536.4 401.02 532.63 404.31 528.61 408.28 523.24 411.41 518.48 413.82 514.43 416.61 509.2 419.37 503.26 422.2 496.01 424 490.44 425.51 484.82 426.73 479.07 427.56 473.96 428.14 469.13 428.14 464.64 428.14 459.67 436.84 459.67 444.58 459.67 460.46 459.67 584.99 459.67 584.99 467.3 584.31 478.91 583.69 486.27 583 492.56 582.23 498.36 581.26 504.56 580.11 510.97 579.06 516.13 577.54 522.8 576.29 527.79 574.79 533.31 573.1 539.03 571.5 544.05 569.55 549.74 566.99 556.65 564.79 562.17 562.44 567.7 560.23 572.59 558.4 576.47 555.86 581.59 552.89 587.27 549.41 593.52 546.11 599.11 543.33 603.6 540.13 608.53 537.03 613.09 533.79 617.65 530.42 622.18 527.8 625.6 522.6 632.03 518.28 637.08 514.93 640.82 511.45 644.58 506.98 649.19 503.18 652.96 499.65 656.31 495.69 659.94 492.32 662.93 487.25 667.23 482.23 671.28 477.03 675.27 472.4 678.67 467.73 681.94 462.89 685.18 458.14 688.21 452.03 691.92 446.4 695.14 441.04 698.04 436.23 700.51 429.88 703.59 421.58 707.31 412.63 710.95 402.94 714.48 395.82 716.8 387.53 719.23 380.3 721.12 371.28 723.17 362.9 724.79 354.81 726.09 348.24 726.97 341.03 727.74 331.65 728.44 323.41 728.8 314.33 728.8 306.75 728.76 299.53 728.43 291.12 727.79 282.86 726.92 275.79 725.96 268.84 724.83 261.52 723.44 254.42 721.89 247.93 720.29 240.31 718.2 232.5 715.79 227.26 714.03 220.98 711.75 214.11 709.06 206.5 705.82 199.88 702.77 192.8 699.26 186.94 696.15 180.76 692.67 175.87 689.77 171.2 686.86 165.83 683.34 161.55 680.41 156.88 677.06 152.33 673.66 147.17 669.61 142.55 665.81 137.5 661.46 131.34 655.84 125.89 650.57 121.37 645.97 117.31 641.64 112.61 636.38 108.77 631.87 104.24 626.29 99.81 620.51 96.18 615.53 91.85 609.25 88.08 603.45 84.63 597.85 82.5 594.23 79.75 589.36 77.39 585 74.62 579.59 71.87 573.9 69.47 568.63 67.21 563.38 65.64 559.54 63.7 554.54 61.75 549.19 59.92 543.81 58.2 538.39 56.48 532.52 55.12 527.48 53.74 521.94 52.42 516.05 51.43 511.17 50.5 506.11 49.6 500.63 48.81 495.05 48.18 489.85 47.5 482.92 47.03 476.56 46.71 470.12 46.55 464.44 46.51 459.67" fill="#fff" stroke="#ff143c" stroke-miterlimit="10" stroke-width="2"/><polyline points="104.87 459.67 105.45 480.19 201.39 479.32" fill="none" stroke="#ff143c" stroke-miterlimit="10" stroke-width="2"/><polyline points="47.65 484.51 164 515.82 207.73 500.73" fill="none" stroke="#ff143c" stroke-miterlimit="10" stroke-width="2"/><line x1="213.81" y1="513.63" x2="67.52" y2="564.1" fill="none" stroke="#ff143c" stroke-miterlimit="10" stroke-width="2"/><polyline points="62.35 550.89 89.69 541.46 56.48 532.52" fill="none" stroke="#ff143c" stroke-miterlimit="10" stroke-width="2"/><polyline points="52.59 516.79 113.59 533.21 140.66 523.87 49.46 499.67" fill="none" stroke="#ff143c" stroke-miterlimit="10" stroke-width="2"/><polyline points="76.31 582.88 199.46 568.84 233.61 539.58" fill="none" stroke="#ff143c" stroke-miterlimit="10" stroke-width="2"/><line x1="244.46" y1="548.94" x2="126.38" y2="650.14" fill="none" stroke="#ff143c" stroke-miterlimit="10" stroke-width="2"/><polyline points="116.1 640.28 139.76 620.01 102.67 624.24" fill="none" stroke="#ff143c" stroke-miterlimit="10" stroke-width="2"/><polyline points="93.09 611.05 158.97 603.55 180.26 585.3 83.71 596.3" fill="none" stroke="#ff143c" stroke-miterlimit="10" stroke-width="2"/><polyline points="142.55 665.81 250.79 610.86 275.67 565.94" fill="none" stroke="#ff143c" stroke-miterlimit="10" stroke-width="2"/><line x1="289.65" y1="569.95" x2="212.88" y2="708.54" fill="none" stroke="#ff143c" stroke-miterlimit="10" stroke-width="2"/><polyline points="199.88 702.77 212.88 679.53 183.72 694.34" fill="none" stroke="#ff143c" stroke-miterlimit="10" stroke-width="2"/><polyline points="169.43 685.7 224.95 657.5 238.54 632.97 154.96 675.41" fill="none" stroke="#ff143c" stroke-miterlimit="10" stroke-width="2"/><polyline points="236.52 717.03 314.36 622.66 319.11 572.48" fill="none" stroke="#ff143c" stroke-miterlimit="10" stroke-width="2"/><line x1="333.5" y1="570.92" x2="318.53" y2="728.8" fill="none" stroke="#ff143c" stroke-miterlimit="10" stroke-width="2"/><polyline points="304.31 728.65 306.94 700.91 285.78 726.57" fill="none" stroke="#ff143c" stroke-miterlimit="10" stroke-width="2"/><polyline points="268.84 724.83 309.32 675.75 311.97 647.83 251.48 721.17" fill="none" stroke="#ff143c" stroke-miterlimit="10" stroke-width="2"/><polyline points="343.26 727.5 372.46 610.54 355.71 564.73" fill="none" stroke="#ff143c" stroke-miterlimit="10" stroke-width="2"/><line x1="368.62" y1="558.76" x2="422.74" y2="706.79" fill="none" stroke="#ff143c" stroke-miterlimit="10" stroke-width="2"/><polyline points="409.57 712.06 399.45 684.37 391 718.21" fill="none" stroke="#ff143c" stroke-miterlimit="10" stroke-width="2"/><polyline points="375.39 722.24 391 661.26 381.14 634.29 358.37 725.52" fill="none" stroke="#ff143c" stroke-miterlimit="10" stroke-width="2"/><polyline points="445.12 695.83 423.78 577.64 390.39 543.46" fill="none" stroke="#ff143c" stroke-miterlimit="10" stroke-width="2"/><line x1="400.29" y1="533.44" x2="509.82" y2="645.43" fill="none" stroke="#ff143c" stroke-miterlimit="10" stroke-width="2"/><polyline points="500.16 655.83 478.71 633.87 485.05 669" fill="none" stroke="#ff143c" stroke-miterlimit="10" stroke-width="2"/><polyline points="472.4 678.67 461.04 615.78 441.45 595.72 458.14 688.21" fill="none" stroke="#ff143c" stroke-miterlimit="10" stroke-width="2"/><line x1="417.75" y1="506.49" x2="525.75" y2="628.12" fill="none" stroke="#ff143c" stroke-miterlimit="10" stroke-width="2"/><path d="M424,490.44,525.69,605S571.3,547.55,572,459.66" fill="none" stroke="#ff143c" stroke-miterlimit="10" stroke-width="2"/><path d="M540.69,198.72c13.31-77.25-21.58-135.5-21.58-135.5h-4.34c5.34,38-12.16,97.18-69.74,141.64S315.29,247.5,315.29,247.5c-124.93-4.38-162.74-85.93-176.16-109.94s-11.42-74.34-11.42-74.34h-3.86s-38.27,60.9-32.41,120.09,57,173,221,178.72S538.22,225.36,540.69,198.72" fill="#fff" stroke="#ff143c" stroke-miterlimit="10" stroke-width="2"/><polyline points="137.14 132.53 127.32 140.75 95.94 137.68 94.46 137.44" fill="none" stroke="#ff143c" stroke-miterlimit="10" stroke-width="2"/><polyline points="92.07 151.63 93.08 151.63 112.08 153.5 91.44 170.76 90.83 171.47" fill="none" stroke="#ff143c" stroke-miterlimit="10" stroke-width="2"/><polyline points="92.31 188.15 113.74 170.59 97.06 210.92 96.94 211.63" fill="none" stroke="#ff143c" stroke-miterlimit="10" stroke-width="2"/><polyline points="104.16 231.98 137.14 151.01 143.53 145.66" fill="none" stroke="#ff143c" stroke-miterlimit="10" stroke-width="2"/><polyline points="111.4 248.59 157.67 233.73 184.43 198.44" fill="none" stroke="#ff143c" stroke-miterlimit="10" stroke-width="2"/><polyline points="195.31 207.55 174.07 235.56 161.01 309.95" fill="none" stroke="#ff143c" stroke-miterlimit="10" stroke-width="2"/><polyline points="136.32 285.33 155.34 260.25 148.72 297.97 148.66 298.88" fill="none" stroke="#ff143c" stroke-miterlimit="10" stroke-width="2"/><polyline points="127.14 273.97 143.53 253.15 118.14 261.31" fill="none" stroke="#ff143c" stroke-miterlimit="10" stroke-width="2"/><polyline points="174.55 320.57 214.46 274.92 225.9 226.65" fill="none" stroke="#ff143c" stroke-miterlimit="10" stroke-width="2"/><polyline points="239.06 232.56 227.76 280.26 242.7 352.32" fill="none" stroke="#ff143c" stroke-miterlimit="10" stroke-width="2"/><polyline points="227.19 347.31 220.06 312.78 213.2 341.72" fill="none" stroke="#ff143c" stroke-miterlimit="10" stroke-width="2"/><polyline points="200.22 336.18 207.47 304.46 186.44 328.51" fill="none" stroke="#ff143c" stroke-miterlimit="10" stroke-width="2"/><polyline points="259.35 356.55 286.16 299.42 284.82 245.1" fill="none" stroke="#ff143c" stroke-miterlimit="10" stroke-width="2"/><polyline points="299.04 246.49 300.31 298.06 331.54 362.03" fill="none" stroke="#ff143c" stroke-miterlimit="10" stroke-width="2"/><polyline points="315.77 362.03 301.14 332.08 301.88 362.03" fill="none" stroke="#ff143c" stroke-miterlimit="10" stroke-width="2"/><polyline points="287.69 360.95 286.95 331.36 273.75 358.89 274.52 357.28 274.52 357.28" fill="none" stroke="#ff143c" stroke-miterlimit="10" stroke-width="2"/><polyline points="349.63 360.8 356.8 292.82 340.27 245.51" fill="none" stroke="#ff143c" stroke-miterlimit="10" stroke-width="2"/><polyline points="354.52 243.3 371.12 290.83 420.77 339.8 421.35 340.38" fill="none" stroke="#ff143c" stroke-miterlimit="10" stroke-width="2"/><polyline points="392.31 351.51 381.72 321.19 406.87 346 407.54 346.64" fill="none" stroke="#ff143c" stroke-miterlimit="10" stroke-width="2"/><polyline points="378.59 355.2 367.75 324.16 364.14 358.32" fill="none" stroke="#ff143c" stroke-miterlimit="10" stroke-width="2"/><polyline points="435.17 332.7 422.96 264.13 400.05 230.08" fill="none" stroke="#ff143c" stroke-miterlimit="10" stroke-width="2"/><polyline points="413.27 224.34 435.17 256.88 491.9 288.21" fill="none" stroke="#ff143c" stroke-miterlimit="10" stroke-width="2"/><polyline points="481.77 298.89 452.58 283 469.86 308.51" fill="none" stroke="#ff143c" stroke-miterlimit="10" stroke-width="2"/><polyline points="458.79 317.37 442.54 293.22 448.36 325.32" fill="none" stroke="#ff143c" stroke-miterlimit="10" stroke-width="2"/><polyline points="502.7 274.91 471.74 215.81 450.39 200.73" fill="none" stroke="#ff143c" stroke-miterlimit="10" stroke-width="2"/><polyline points="461.28 191.07 482.33 205.95 537.22 211.32" fill="none" stroke="#ff143c" stroke-miterlimit="10" stroke-width="2"/><polyline points="532.51 225.1 505.72 222.48 527.27 237.72" fill="none" stroke="#ff143c" stroke-miterlimit="10" stroke-width="2"/><polyline points="519.12 249.51 497.19 233.81 511.88 262.27" fill="none" stroke="#ff143c" stroke-miterlimit="10" stroke-width="2"/><line x1="540.55" y1="199.93" x2="540.89" y2="196.74" fill="none" stroke="#ff143c" stroke-miterlimit="10" stroke-width="2"/><path d="M132.27,118c-17.72-26.15-33,2.83-33,2.83l-1.35,2.6" fill="none" stroke="#ff143c" stroke-miterlimit="10" stroke-width="2"/><path d="M494.9,148.66s44.1-37.74,46,48.89" fill="none" stroke="#ff143c" stroke-miterlimit="10" stroke-width="2"/></svg>