<svg xmlns="http://www.w3.org/2000/svg" viewBox="0 0 1247 736"><title>background_board</title><polygon points="45.51 59.66 198.4 59.66 198.4 66.85 200.39 79.32 202.79 89.49 205.89 98.78 209.6 107.44 212.81 113.63 218.92 123.41 224.21 130.42 229.73 136.7 234.28 141.25 240.53 146.75 248.09 152.43 255.59 157.18 263.9 161.55 270.33 164.37 277.72 167.04 287.03 169.63 293.79 170.98 300.85 171.95 306.75 172.42 313.04 172.59 318.11 172.48 323.51 172.12 329.43 171.43 334.5 170.58 339.93 169.42 345.71 167.87 350.07 166.48 356.57 164.03 362.06 161.61 366.54 159.36 371.34 156.68 375.92 153.82 380.55 150.61 384.66 147.46 389.39 143.46 393.52 139.59 396.63 136.4 400.02 132.63 403.31 128.61 407.28 123.24 410.41 118.48 412.82 114.43 415.61 109.2 418.37 103.26 421.2 96.01 423 90.44 424.51 84.82 425.73 79.08 426.56 73.97 427.14 69.13 427.14 64.64 427.14 59.66 435.84 59.66 443.58 59.66 459.46 59.66 583.99 59.66 583.99 67.3 583.31 78.91 582.69 86.27 582 92.56 581.23 98.36 580.26 104.56 579.11 110.97 578.06 116.13 576.54 122.8 575.29 127.79 573.79 133.31 572.1 139.03 570.5 144.05 568.55 149.74 565.99 156.65 563.79 162.17 561.44 167.7 559.23 172.59 557.4 176.47 554.86 181.59 551.89 187.27 548.41 193.52 545.11 199.11 542.33 203.59 539.13 208.53 536.03 213.09 532.79 217.65 529.42 222.18 526.8 225.59 521.6 232.03 517.28 237.07 513.93 240.82 510.45 244.58 505.98 249.19 502.18 252.96 498.65 256.31 494.69 259.94 491.32 262.93 486.25 267.23 481.23 271.28 476.03 275.27 471.4 278.67 466.73 281.94 461.89 285.18 457.14 288.21 451.03 291.92 445.4 295.14 440.04 298.04 435.23 300.51 428.88 303.59 420.58 307.31 411.63 310.95 401.94 314.48 394.82 316.8 386.53 319.23 379.3 321.12 370.28 323.17 361.9 324.79 353.81 326.09 347.24 326.97 340.03 327.74 330.65 328.44 322.41 328.8 313.33 328.8 305.75 328.76 298.53 328.43 290.12 327.8 281.86 326.92 274.79 325.96 267.84 324.83 260.52 323.44 253.42 321.89 246.93 320.29 239.31 318.2 231.5 315.79 226.26 314.03 219.98 311.75 213.11 309.06 205.5 305.82 198.88 302.77 191.8 299.26 185.94 296.15 179.76 292.67 174.87 289.77 170.2 286.86 164.83 283.34 160.55 280.41 155.88 277.06 151.33 273.66 146.17 269.61 141.55 265.81 136.5 261.46 130.34 255.84 124.89 250.56 120.37 245.97 116.31 241.64 111.61 236.38 107.77 231.87 103.24 226.29 98.81 220.51 95.18 215.53 90.85 209.25 87.08 203.45 83.63 197.85 81.5 194.23 78.75 189.36 76.39 185 73.62 179.59 70.87 173.9 68.47 168.63 66.21 163.38 64.64 159.54 62.7 154.54 60.75 149.19 58.92 143.81 57.2 138.39 55.48 132.52 54.12 127.48 52.74 121.94 51.42 116.05 50.43 111.17 49.5 106.11 48.6 100.63 47.81 95.05 47.18 89.85 46.5 82.92 46.03 76.56 45.71 70.12 45.55 64.44 45.51 59.66" fill="#fff" stroke="#ff143c" stroke-miterlimit="10" stroke-width="2"/><polyline points="103.87 59.66 104.45 80.19 200.39 79.32" fill="none" stroke="#ff143c" stroke-miterlimit="10" stroke-width="2"/><polyline points="46.65 84.51 163 115.82 206.73 100.73" fill="none" stroke="#ff143c" stroke-miterlimit="10" stroke-width="2"/><line x1="212.81" y1="113.63" x2="66.52" y2="164.1" fill="none" stroke="#ff143c" stroke-miterlimit="10" stroke-width="2"/><polyline points="61.35 150.89 88.69 141.46 55.48 132.52" fill="none" stroke="#ff143c" stroke-miterlimit="10" stroke-width="2"/><polyline points="51.59 116.8 112.59 133.21 139.66 123.87 48.46 99.67" fill="none" stroke="#ff143c" stroke-miterlimit="10" stroke-width="2"/><polyline points="75.31 182.88 198.46 168.84 232.61 139.58" fill="none" stroke="#ff143c" stroke-miterlimit="10" stroke-width="2"/><line x1="243.46" y1="148.94" x2="125.38" y2="250.14" fill="none" stroke="#ff143c" stroke-miterlimit="10" stroke-width="2"/><polyline points="115.1 240.28 138.76 220.01 101.67 224.24" fill="none" stroke="#ff143c" stroke-miterlimit="10" stroke-width="2"/><polyline points="92.09 211.05 157.97 203.55 179.26 185.3 82.71 196.3" fill="none" stroke="#ff143c" stroke-miterlimit="10" stroke-width="2"/><polyline points="141.55 265.81 249.79 210.85 274.67 165.94" fill="none" stroke="#ff143c" stroke-miterlimit="10" stroke-width="2"/><line x1="288.65" y1="169.95" x2="211.88" y2="308.54" fill="none" stroke="#ff143c" stroke-miterlimit="10" stroke-width="2"/><polyline points="198.88 302.77 211.88 279.53 182.72 294.34" fill="none" stroke="#ff143c" stroke-miterlimit="10" stroke-width="2"/><polyline points="168.43 285.69 223.95 257.5 237.54 232.97 153.96 275.41" fill="none" stroke="#ff143c" stroke-miterlimit="10" stroke-width="2"/><polyline points="235.52 317.03 313.36 222.66 318.11 172.48" fill="none" stroke="#ff143c" stroke-miterlimit="10" stroke-width="2"/><line x1="332.5" y1="170.92" x2="317.53" y2="328.8" fill="none" stroke="#ff143c" stroke-miterlimit="10" stroke-width="2"/><polyline points="303.31 328.65 305.94 300.91 284.78 326.57" fill="none" stroke="#ff143c" stroke-miterlimit="10" stroke-width="2"/><polyline points="267.84 324.83 308.32 275.75 310.97 247.83 250.48 321.17" fill="none" stroke="#ff143c" stroke-miterlimit="10" stroke-width="2"/><polyline points="342.26 327.5 371.46 210.54 354.71 164.73" fill="none" stroke="#ff143c" stroke-miterlimit="10" stroke-width="2"/><line x1="367.62" y1="158.76" x2="421.74" y2="306.79" fill="none" stroke="#ff143c" stroke-miterlimit="10" stroke-width="2"/><polyline points="408.57 312.06 398.45 284.37 390 318.21" fill="none" stroke="#ff143c" stroke-miterlimit="10" stroke-width="2"/><polyline points="374.39 322.24 390 261.26 380.14 234.29 357.37 325.52" fill="none" stroke="#ff143c" stroke-miterlimit="10" stroke-width="2"/><polyline points="444.12 295.83 422.78 177.64 389.39 143.46" fill="none" stroke="#ff143c" stroke-miterlimit="10" stroke-width="2"/><line x1="399.29" y1="133.44" x2="508.82" y2="245.43" fill="none" stroke="#ff143c" stroke-miterlimit="10" stroke-width="2"/><polyline points="499.16 255.83 477.71 233.87 484.05 269" fill="none" stroke="#ff143c" stroke-miterlimit="10" stroke-width="2"/><polyline points="471.4 278.67 460.04 215.78 440.45 195.72 457.14 288.21" fill="none" stroke="#ff143c" stroke-miterlimit="10" stroke-width="2"/><line x1="416.75" y1="106.49" x2="524.75" y2="228.12" fill="none" stroke="#ff143c" stroke-miterlimit="10" stroke-width="2"/><path d="M423,90.44,524.69,205S570.3,147.55,571,59.66" fill="none" stroke="#ff143c" stroke-miterlimit="10" stroke-width="2"/><polygon points="661.51 430.67 814.4 430.67 814.4 437.85 816.39 450.32 818.79 460.49 821.89 469.78 825.6 478.44 828.81 484.63 834.92 494.41 840.21 501.42 845.73 507.7 850.28 512.25 856.53 517.75 864.09 523.42 871.59 528.18 879.9 532.55 886.33 535.37 893.72 538.04 903.03 540.63 909.79 541.98 916.85 542.95 922.75 543.42 929.04 543.59 934.11 543.48 939.51 543.12 945.43 542.43 950.5 541.58 955.93 540.42 961.71 538.87 966.07 537.48 972.57 535.03 978.07 532.61 982.54 530.36 987.34 527.68 991.92 524.82 996.55 521.61 1000.66 518.46 1005.39 514.46 1009.52 510.59 1012.63 507.4 1016.02 503.63 1019.32 499.61 1023.28 494.24 1026.41 489.48 1028.82 485.43 1031.61 480.2 1034.37 474.26 1037.2 467.01 1039 461.44 1040.51 455.82 1041.73 450.07 1042.56 444.96 1043.14 440.13 1043.14 435.64 1043.14 430.67 1051.84 430.67 1059.58 430.67 1075.46 430.67 1199.99 430.67 1199.99 438.3 1199.31 449.91 1198.69 457.27 1198 463.56 1197.23 469.36 1196.26 475.56 1195.11 481.97 1194.06 487.13 1192.55 493.8 1191.3 498.79 1189.79 504.31 1188.1 510.03 1186.5 515.05 1184.55 520.74 1181.99 527.65 1179.79 533.17 1177.44 538.7 1175.23 543.59 1173.4 547.47 1170.86 552.59 1167.89 558.27 1164.41 564.52 1161.11 570.11 1158.33 574.6 1155.13 579.53 1152.03 584.09 1148.79 588.65 1145.42 593.18 1142.8 596.6 1137.6 603.03 1133.28 608.08 1129.93 611.82 1126.45 615.58 1121.98 620.19 1118.18 623.96 1114.65 627.31 1110.69 630.94 1107.32 633.93 1102.24 638.23 1097.23 642.28 1092.03 646.27 1087.4 649.67 1082.73 652.94 1077.89 656.18 1073.14 659.21 1067.03 662.92 1061.4 666.14 1056.04 669.04 1051.23 671.51 1044.88 674.59 1036.59 678.31 1027.63 681.95 1017.94 685.48 1010.82 687.8 1002.53 690.23 995.3 692.12 986.28 694.17 977.9 695.79 969.8 697.09 963.24 697.97 956.03 698.74 946.65 699.44 938.41 699.8 929.33 699.8 921.75 699.76 914.53 699.43 906.12 698.79 897.86 697.92 890.79 696.96 883.84 695.83 876.52 694.44 869.42 692.89 862.93 691.29 855.31 689.2 847.5 686.79 842.26 685.03 835.98 682.75 829.11 680.06 821.5 676.82 814.88 673.77 807.8 670.26 801.94 667.15 795.76 663.67 790.87 660.77 786.2 657.86 780.83 654.34 776.55 651.41 771.88 648.06 767.33 644.66 762.17 640.61 757.55 636.81 752.5 632.46 746.34 626.84 740.88 621.57 736.37 616.97 732.31 612.64 727.61 607.38 723.77 602.87 719.24 597.29 714.81 591.51 711.18 586.53 706.85 580.25 703.08 574.45 699.63 568.85 697.5 565.23 694.75 560.36 692.39 556 689.62 550.59 686.87 544.9 684.47 539.63 682.21 534.38 680.64 530.54 678.7 525.54 676.75 520.19 674.92 514.81 673.2 509.39 671.48 503.52 670.12 498.48 668.74 492.94 667.42 487.05 666.43 482.17 665.5 477.11 664.6 471.63 663.81 466.05 663.18 460.85 662.5 453.92 662.03 447.56 661.71 441.12 661.55 435.44 661.51 430.67" fill="#fff" stroke="#ff143c" stroke-miterlimit="10" stroke-width="2"/><polyline points="719.87 430.67 720.45 451.19 816.39 450.32" fill="none" stroke="#ff143c" stroke-miterlimit="10" stroke-width="2"/><polyline points="662.65 455.51 779 486.82 822.73 471.73" fill="none" stroke="#ff143c" stroke-miterlimit="10" stroke-width="2"/><line x1="828.81" y1="484.63" x2="682.52" y2="535.1" fill="none" stroke="#ff143c" stroke-miterlimit="10" stroke-width="2"/><polyline points="677.35 521.89 704.69 512.46 671.48 503.52" fill="none" stroke="#ff143c" stroke-miterlimit="10" stroke-width="2"/><polyline points="667.59 487.8 728.59 504.21 755.66 494.87 664.46 470.67" fill="none" stroke="#ff143c" stroke-miterlimit="10" stroke-width="2"/><polyline points="691.31 553.88 814.46 539.84 848.61 510.58" fill="none" stroke="#ff143c" stroke-miterlimit="10" stroke-width="2"/><line x1="859.46" y1="519.94" x2="741.38" y2="621.14" fill="none" stroke="#ff143c" stroke-miterlimit="10" stroke-width="2"/><polyline points="731.1 611.28 754.76 591.01 717.67 595.24" fill="none" stroke="#ff143c" stroke-miterlimit="10" stroke-width="2"/><polyline points="708.09 582.05 773.97 574.55 795.26 556.3 698.71 567.3" fill="none" stroke="#ff143c" stroke-miterlimit="10" stroke-width="2"/><polyline points="757.55 636.81 865.79 581.86 890.67 536.94" fill="none" stroke="#ff143c" stroke-miterlimit="10" stroke-width="2"/><line x1="904.65" y1="540.95" x2="827.88" y2="679.54" fill="none" stroke="#ff143c" stroke-miterlimit="10" stroke-width="2"/><polyline points="814.88 673.77 827.88 650.53 798.72 665.34" fill="none" stroke="#ff143c" stroke-miterlimit="10" stroke-width="2"/><polyline points="784.43 656.7 839.95 628.5 853.54 603.97 769.96 646.41" fill="none" stroke="#ff143c" stroke-miterlimit="10" stroke-width="2"/><polyline points="851.52 688.03 929.36 593.66 934.11 543.48" fill="none" stroke="#ff143c" stroke-miterlimit="10" stroke-width="2"/><line x1="948.5" y1="541.92" x2="933.53" y2="699.8" fill="none" stroke="#ff143c" stroke-miterlimit="10" stroke-width="2"/><polyline points="919.31 699.65 921.94 671.91 900.78 697.57" fill="none" stroke="#ff143c" stroke-miterlimit="10" stroke-width="2"/><polyline points="883.84 695.83 924.32 646.75 926.97 618.83 866.48 692.17" fill="none" stroke="#ff143c" stroke-miterlimit="10" stroke-width="2"/><polyline points="958.26 698.5 987.46 581.54 970.71 535.73" fill="none" stroke="#ff143c" stroke-miterlimit="10" stroke-width="2"/><line x1="983.62" y1="529.76" x2="1037.74" y2="677.79" fill="none" stroke="#ff143c" stroke-miterlimit="10" stroke-width="2"/><polyline points="1024.57 683.06 1014.45 655.37 1006 689.21" fill="none" stroke="#ff143c" stroke-miterlimit="10" stroke-width="2"/><polyline points="990.39 693.24 1006 632.26 996.14 605.29 973.37 696.52" fill="none" stroke="#ff143c" stroke-miterlimit="10" stroke-width="2"/><polyline points="1060.12 666.83 1038.78 548.64 1005.39 514.46" fill="none" stroke="#ff143c" stroke-miterlimit="10" stroke-width="2"/><line x1="1015.29" y1="504.44" x2="1124.82" y2="616.43" fill="none" stroke="#ff143c" stroke-miterlimit="10" stroke-width="2"/><polyline points="1115.16 626.83 1093.71 604.87 1100.05 640" fill="none" stroke="#ff143c" stroke-miterlimit="10" stroke-width="2"/><polyline points="1087.4 649.67 1076.04 586.78 1056.45 566.72 1073.14 659.21" fill="none" stroke="#ff143c" stroke-miterlimit="10" stroke-width="2"/><line x1="1032.75" y1="477.49" x2="1140.75" y2="599.12" fill="none" stroke="#ff143c" stroke-miterlimit="10" stroke-width="2"/><path d="M1039,461.44,1140.69,576s45.61-57.42,46.29-145.31" fill="none" stroke="#ff143c" stroke-miterlimit="10" stroke-width="2"/><path d="M523.69,534.72c13.31-77.25-21.58-135.5-21.58-135.5h-4.34c5.34,38-12.16,97.18-69.74,141.64S298.29,583.5,298.29,583.5c-124.93-4.38-162.74-85.93-176.16-109.94s-11.42-74.34-11.42-74.34h-3.86s-38.27,60.9-32.41,120.09,57,173,221,178.72S521.22,561.36,523.69,534.72" fill="#fff" stroke="#ff143c" stroke-miterlimit="10" stroke-width="2"/><polyline points="120.14 468.53 110.32 476.75 78.94 473.68 77.46 473.44" fill="none" stroke="#ff143c" stroke-miterlimit="10" stroke-width="2"/><polyline points="75.07 487.63 76.08 487.63 95.08 489.5 74.44 506.76 73.83 507.46" fill="none" stroke="#ff143c" stroke-miterlimit="10" stroke-width="2"/><polyline points="75.31 524.15 96.74 506.58 80.06 546.92 79.94 547.63" fill="none" stroke="#ff143c" stroke-miterlimit="10" stroke-width="2"/><polyline points="87.16 567.98 120.14 487.01 126.53 481.66" fill="none" stroke="#ff143c" stroke-miterlimit="10" stroke-width="2"/><polyline points="94.4 584.59 140.67 569.73 167.43 534.44" fill="none" stroke="#ff143c" stroke-miterlimit="10" stroke-width="2"/><polyline points="178.31 543.55 157.07 571.56 144.01 645.95" fill="none" stroke="#ff143c" stroke-miterlimit="10" stroke-width="2"/><polyline points="119.32 621.33 138.34 596.25 131.72 633.97 131.66 634.88" fill="none" stroke="#ff143c" stroke-miterlimit="10" stroke-width="2"/><polyline points="110.14 609.97 126.53 589.15 101.14 597.31" fill="none" stroke="#ff143c" stroke-miterlimit="10" stroke-width="2"/><polyline points="157.55 656.57 197.46 610.92 208.9 562.65" fill="none" stroke="#ff143c" stroke-miterlimit="10" stroke-width="2"/><polyline points="222.06 568.57 210.76 616.26 225.7 688.32" fill="none" stroke="#ff143c" stroke-miterlimit="10" stroke-width="2"/><polyline points="210.19 683.31 203.06 648.78 196.2 677.72" fill="none" stroke="#ff143c" stroke-miterlimit="10" stroke-width="2"/><polyline points="183.22 672.18 190.47 640.46 169.44 664.51" fill="none" stroke="#ff143c" stroke-miterlimit="10" stroke-width="2"/><polyline points="242.35 692.54 269.16 635.42 267.82 581.1" fill="none" stroke="#ff143c" stroke-miterlimit="10" stroke-width="2"/><polyline points="282.04 582.49 283.31 634.07 314.54 698.03" fill="none" stroke="#ff143c" stroke-miterlimit="10" stroke-width="2"/><polyline points="298.77 698.03 284.14 668.08 284.88 698.03" fill="none" stroke="#ff143c" stroke-miterlimit="10" stroke-width="2"/><polyline points="270.69 696.95 269.95 667.36 256.75 694.89 257.52 693.28 257.52 693.28" fill="none" stroke="#ff143c" stroke-miterlimit="10" stroke-width="2"/><polyline points="332.63 696.8 339.8 628.82 323.27 581.51" fill="none" stroke="#ff143c" stroke-miterlimit="10" stroke-width="2"/><polyline points="337.52 579.3 354.12 626.83 403.77 675.8 404.35 676.38" fill="none" stroke="#ff143c" stroke-miterlimit="10" stroke-width="2"/><polyline points="375.31 687.51 364.72 657.19 389.87 682 390.54 682.64" fill="none" stroke="#ff143c" stroke-miterlimit="10" stroke-width="2"/><polyline points="361.59 691.2 350.75 660.16 347.14 694.32" fill="none" stroke="#ff143c" stroke-miterlimit="10" stroke-width="2"/><polyline points="418.17 668.7 405.96 600.13 383.05 566.08" fill="none" stroke="#ff143c" stroke-miterlimit="10" stroke-width="2"/><polyline points="396.27 560.34 418.17 592.88 474.9 624.22" fill="none" stroke="#ff143c" stroke-miterlimit="10" stroke-width="2"/><polyline points="464.77 634.89 435.58 619 452.86 644.51" fill="none" stroke="#ff143c" stroke-miterlimit="10" stroke-width="2"/><polyline points="441.79 653.37 425.54 629.22 431.36 661.32" fill="none" stroke="#ff143c" stroke-miterlimit="10" stroke-width="2"/><polyline points="485.7 610.91 454.74 551.8 433.39 536.73" fill="none" stroke="#ff143c" stroke-miterlimit="10" stroke-width="2"/><polyline points="444.28 527.08 465.33 541.95 520.22 547.32" fill="none" stroke="#ff143c" stroke-miterlimit="10" stroke-width="2"/><polyline points="515.51 561.1 488.72 558.48 510.27 573.72" fill="none" stroke="#ff143c" stroke-miterlimit="10" stroke-width="2"/><polyline points="502.12 585.51 480.19 569.81 494.88 598.27" fill="none" stroke="#ff143c" stroke-miterlimit="10" stroke-width="2"/><line x1="523.55" y1="535.93" x2="523.89" y2="532.74" fill="none" stroke="#ff143c" stroke-miterlimit="10" stroke-width="2"/><path d="M115.27,454c-17.72-26.15-33,2.83-33,2.83l-1.35,2.6" fill="none" stroke="#ff143c" stroke-miterlimit="10" stroke-width="2"/><path d="M477.9,484.66s44.1-37.74,46,48.89" fill="none" stroke="#ff143c" stroke-miterlimit="10" stroke-width="2"/><path d="M1155.69,169.72c13.31-77.25-21.58-135.5-21.58-135.5h-4.34c5.34,38-12.16,97.18-69.74,141.64S930.29,218.5,930.29,218.5c-124.93-4.38-162.74-85.93-176.16-109.94s-11.42-74.34-11.42-74.34h-3.86s-38.27,60.9-32.41,120.09,57,173,221,178.72,225.77-136.67,228.24-163.31" fill="#fff" stroke="#ff143c" stroke-miterlimit="10" stroke-width="2"/><polyline points="752.14 103.53 742.32 111.75 710.94 108.67 709.46 108.44" fill="none" stroke="#ff143c" stroke-miterlimit="10" stroke-width="2"/><polyline points="707.07 122.64 708.08 122.64 727.08 124.5 706.44 141.76 705.83 142.47" fill="none" stroke="#ff143c" stroke-miterlimit="10" stroke-width="2"/><polyline points="707.31 159.15 728.74 141.59 712.06 181.92 711.94 182.63" fill="none" stroke="#ff143c" stroke-miterlimit="10" stroke-width="2"/><polyline points="719.16 202.98 752.14 122.01 758.53 116.66" fill="none" stroke="#ff143c" stroke-miterlimit="10" stroke-width="2"/><polyline points="726.4 219.59 772.67 204.73 799.43 169.44" fill="none" stroke="#ff143c" stroke-miterlimit="10" stroke-width="2"/><polyline points="810.3 178.55 789.07 206.56 776.01 280.95" fill="none" stroke="#ff143c" stroke-miterlimit="10" stroke-width="2"/><polyline points="751.32 256.33 770.34 231.25 763.72 268.97 763.66 269.88" fill="none" stroke="#ff143c" stroke-miterlimit="10" stroke-width="2"/><polyline points="742.14 244.97 758.53 224.15 733.14 232.31" fill="none" stroke="#ff143c" stroke-miterlimit="10" stroke-width="2"/><polyline points="789.55 291.57 829.46 245.92 840.9 197.65" fill="none" stroke="#ff143c" stroke-miterlimit="10" stroke-width="2"/><polyline points="854.06 203.56 842.76 251.26 857.7 323.32" fill="none" stroke="#ff143c" stroke-miterlimit="10" stroke-width="2"/><polyline points="842.19 318.31 835.06 283.78 828.2 312.72" fill="none" stroke="#ff143c" stroke-miterlimit="10" stroke-width="2"/><polyline points="815.22 307.18 822.47 275.46 801.44 299.51" fill="none" stroke="#ff143c" stroke-miterlimit="10" stroke-width="2"/><polyline points="874.35 327.55 901.16 270.42 899.82 216.1" fill="none" stroke="#ff143c" stroke-miterlimit="10" stroke-width="2"/><polyline points="914.04 217.49 915.31 269.06 946.54 333.03" fill="none" stroke="#ff143c" stroke-miterlimit="10" stroke-width="2"/><polyline points="930.77 333.03 916.14 303.08 916.88 333.03" fill="none" stroke="#ff143c" stroke-miterlimit="10" stroke-width="2"/><polyline points="902.69 331.95 901.95 302.36 888.75 329.89 889.52 328.28 889.52 328.28" fill="none" stroke="#ff143c" stroke-miterlimit="10" stroke-width="2"/><polyline points="964.63 331.8 971.8 263.82 955.27 216.51" fill="none" stroke="#ff143c" stroke-miterlimit="10" stroke-width="2"/><polyline points="969.52 214.3 986.12 261.83 1035.77 310.8 1036.35 311.38" fill="none" stroke="#ff143c" stroke-miterlimit="10" stroke-width="2"/><polyline points="1007.31 322.51 996.72 292.19 1021.87 317 1022.54 317.64" fill="none" stroke="#ff143c" stroke-miterlimit="10" stroke-width="2"/><polyline points="993.59 326.2 982.75 295.16 979.14 329.32" fill="none" stroke="#ff143c" stroke-miterlimit="10" stroke-width="2"/><polyline points="1050.17 303.7 1037.96 235.13 1015.05 201.08" fill="none" stroke="#ff143c" stroke-miterlimit="10" stroke-width="2"/><polyline points="1028.27 195.34 1050.17 227.88 1106.9 259.21" fill="none" stroke="#ff143c" stroke-miterlimit="10" stroke-width="2"/><polyline points="1096.77 269.89 1067.59 254 1084.86 279.51" fill="none" stroke="#ff143c" stroke-miterlimit="10" stroke-width="2"/><polyline points="1073.79 288.37 1057.54 264.22 1063.36 296.32" fill="none" stroke="#ff143c" stroke-miterlimit="10" stroke-width="2"/><polyline points="1117.7 245.91 1086.74 186.81 1065.39 171.73" fill="none" stroke="#ff143c" stroke-miterlimit="10" stroke-width="2"/><polyline points="1076.28 162.07 1097.33 176.95 1152.22 182.32" fill="none" stroke="#ff143c" stroke-miterlimit="10" stroke-width="2"/><polyline points="1147.51 196.1 1120.72 193.48 1142.28 208.72" fill="none" stroke="#ff143c" stroke-miterlimit="10" stroke-width="2"/><polyline points="1134.12 220.51 1112.19 204.81 1126.88 233.27" fill="none" stroke="#ff143c" stroke-miterlimit="10" stroke-width="2"/><line x1="1155.55" y1="170.93" x2="1155.89" y2="167.74" fill="none" stroke="#ff143c" stroke-miterlimit="10" stroke-width="2"/><path d="M747.27,89c-17.72-26.15-33,2.83-33,2.83l-1.35,2.6" fill="none" stroke="#ff143c" stroke-miterlimit="10" stroke-width="2"/><path d="M1109.9,119.66s44.1-37.74,46,48.89" fill="none" stroke="#ff143c" stroke-miterlimit="10" stroke-width="2"/></svg>