<svg xmlns="http://www.w3.org/2000/svg" viewBox="0 0 260 648"><title>logo</title><path d="M40.38,58q6,0,11.09,6.12T59.25,81.5a107,107,0,0,1,2.67,24.67q0,19.33-4.94,32.34-6,15.74-16.45,15.73-10.31,0-15.87-14.37t-5.57-33.31q0-19.52,5.69-34T40.38,58Zm.2,6.9c-1.66,0-3.09,1.24-4.27,3.73s-2,7.42-2.35,14.77S33.4,101,33.4,114q0,10.39.68,19.42.54,6.9,2.3,10.49c1.17,2.4,2.5,3.59,4,3.59A4.25,4.25,0,0,0,44,145.12a23.78,23.78,0,0,0,2.54-9.23q1-9.22,1-37.29,0-16.51-.93-22.68t-2.73-9A3.82,3.82,0,0,0,40.58,64.9Z" fill="none" stroke="#000"/><path d="M40.38,347q6,0,11.09,6.12t7.78,17.38a107,107,0,0,1,2.67,24.67q0,19.33-4.94,32.34-6,15.74-16.45,15.73-10.31,0-15.87-14.37t-5.57-33.31q0-19.51,5.69-34T40.38,347Zm.2,6.9c-1.66,0-3.09,1.24-4.27,3.73s-2,7.42-2.35,14.77S33.4,390,33.4,403q0,10.4.68,19.42.54,6.9,2.3,10.49c1.17,2.4,2.5,3.59,4,3.59A4.25,4.25,0,0,0,44,434.12a23.78,23.78,0,0,0,2.54-9.23q1-9.22,1-37.29,0-16.52-.93-22.68t-2.73-9A3.82,3.82,0,0,0,40.58,353.9Z" fill="none" stroke="#000"/><path d="M88.27,68.47v65.45q0,9.48,1,11.9A5.27,5.27,0,0,0,95,149.25v3.63H68.1v-3.63c2.05-.07,3.51-.56,4.37-1.47A7.43,7.43,0,0,0,74.25,144a63.52,63.52,0,0,0,.49-10.08V68.47H68.1V58.58h6.64v-7l0-4.73q0-14.53,5.16-24.21T93.79,13q6,0,8.91,4.64a19,19,0,0,1,2.9,10.29,16.29,16.29,0,0,1-1.8,7.86C102.59,38,101,39.12,99,39.12a4.51,4.51,0,0,1-4-2.72,12.47,12.47,0,0,1-1.49-6c0-.61.1-1.85.3-3.74A28.39,28.39,0,0,0,94,23.39a6.46,6.46,0,0,0-.58-3.13c-.53-1-1.16-1.51-1.91-1.51-.94,0-1.73.81-2.37,2.42a23,23,0,0,0-1,7.76l.1,17.65v12H95v9.89Z" fill="none" stroke="#000"/><path d="M121,68.47v65.45q0,9.48,1,11.9a5.27,5.27,0,0,0,5.76,3.43v3.63H100.8v-3.63c2-.07,3.51-.56,4.37-1.47A7.43,7.43,0,0,0,107,144a65.26,65.26,0,0,0,.48-10.08V68.47H100.8V58.58h6.64v-7l0-4.73q0-14.53,5.15-24.21T126.49,13q6,0,8.91,4.64a19,19,0,0,1,2.9,10.29,16.29,16.29,0,0,1-1.8,7.86c-1.21,2.22-2.8,3.33-4.79,3.33a4.51,4.51,0,0,1-4-2.72,12.47,12.47,0,0,1-1.49-6c0-.61.1-1.85.3-3.74a28.39,28.39,0,0,0,.19-3.22,6.46,6.46,0,0,0-.58-3.13c-.52-1-1.16-1.51-1.91-1.51-.94,0-1.73.81-2.37,2.42a23,23,0,0,0-.95,7.76l.1,17.65v12h6.74v9.89Z" fill="none" stroke="#000"/><path d="M37,155v37.91H47.8v11H37v64a110.23,110.23,0,0,0,.37,11.58,11.76,11.76,0,0,0,1.29,4.21c.62,1.08,1.19,1.61,1.71,1.61q3.18,0,6-11l1.46,2.44Q43.86,298,35,298c-2.9,0-5.34-1.83-7.35-5.49a33.82,33.82,0,0,1-3.83-12.25q-.48-3.76-.49-20.39v-56H17.34V200a129.92,129.92,0,0,0,10.47-20.73A179.71,179.71,0,0,0,35.35,155Z" fill="none" stroke="#000"/><path d="M90.22,243h-25q.45,19.34,4.84,30.56,3.36,8.63,8.1,8.62,2.94,0,5.32-3.48t5.13-12.52l1.66,2.28q-3.7,16.11-8.2,22.82T71.62,298q-10.16,0-15.38-16.63Q52,268,52,248.11q0-24.31,6.17-38.71T72.69,195q6.93,0,12,12.11T90.22,243Zm-12-7q0-16.73-.85-23a27.38,27.38,0,0,0-2.67-9.45A3.06,3.06,0,0,0,72,201.76c-1.69,0-3.08,1.76-4.15,5.3q-2.88,9.24-2.88,25.36v3.63Z" fill="none" stroke="#000"/><path d="M132.59,270l1.51,2.5q-3.21,12.88-8,19.17T115.84,298q-9.14,0-14.6-14.65t-5.47-35.24q0-19.85,5-34.92,6-18.19,16.56-18.19,7.08,0,11.25,7.59a34.47,34.47,0,0,1,4.18,16.94,22.13,22.13,0,0,1-1.69,9.46q-1.68,3.52-4.42,3.53c-1.92,0-3.5-1.35-4.76-4.05s-2-7.52-2.32-14.45c-.19-4.37-.66-7.41-1.41-9.15s-1.63-2.59-2.64-2.59c-1.56,0-2.9,1.76-4,5.3q-2.55,8-2.54,24.52A162,162,0,0,0,111,258.35q2.05,12.52,5.61,18.66,2.68,4.46,6.35,4.46a6.11,6.11,0,0,0,4.54-2.39Q129.66,276.7,132.59,270Z" fill="none" stroke="#000"/><path d="M157.77,155v57.05q3.76-8.53,6.89-12.07t6.49-3.54c2.87,0,5.31,1.76,7.35,5.28a34,34,0,0,1,4.05,12.39q1,7.11,1,24v38.49q0,11.3,1,14.08a5.26,5.26,0,0,0,3.95,3.53V298H165.34v-3.8q2.44-.74,3.66-4.21.88-2.75.88-13.4v-44q0-12.24-.44-15.35a13,13,0,0,0-1.49-4.85,2.92,2.92,0,0,0-2.37-1.74q-2,0-3.8,2.9t-4,10.18v52.83q0,10.55.73,13.18c.62,2.4,1.89,3.87,3.81,4.43V298H139.17v-3.8a5.62,5.62,0,0,0,4.1-4q.82-2.32.83-13.61V176.41q0-11.17-.95-13.92a5.49,5.49,0,0,0-4-3.59V155Z" fill="none" stroke="#000"/><path d="M212.79,200.8v12.71q3.51-8.2,6.74-11.93t6.93-3.72q4.44,0,7.37,5.3a36.32,36.32,0,0,1,3.91,13.18q.78,6,.78,23v38.23q0,11.35.95,14.13a5.21,5.21,0,0,0,4,3.52V299H220.36v-3.78q2.58-.74,3.71-4.62.78-2.62.78-13V233.88q0-12.07-.44-15.23a12.92,12.92,0,0,0-1.49-4.88c-.7-1.16-1.47-1.74-2.32-1.74q-4.2,0-7.81,12.92v52.62q0,11,1,14a5.13,5.13,0,0,0,3.54,3.68V299h-23.1v-3.78a5.65,5.65,0,0,0,4.11-4q.83-2.31.83-13.66V222.12q0-11.13-1-13.87a5.45,5.45,0,0,0-4-3.57V200.8Z" fill="none" stroke="#000"/><path d="M86.12,299V420.58c0,6.9.37,11.32,1.12,13.23a5.05,5.05,0,0,0,4.4,3.3v3.77H67v-3.77c2-.14,3.52-1.39,4.49-3.77q1-2.4,1-12.76V319.3q0-10.26-1.12-13.13a5,5,0,0,0-4.35-3.3V299Z" fill="none" stroke="#000"/><path d="M117,347q6,0,11.08,6.05t7.79,17.21a105.31,105.31,0,0,1,2.66,24.41q0,19.13-4.93,32-6,15.57-16.46,15.57-10.31,0-15.87-14.22t-5.56-33q0-19.31,5.68-33.68T117,347Zm.19,6.82c-1.66,0-3.08,1.24-4.27,3.7s-2,7.34-2.35,14.61-.56,17.38-.56,30.32q0,10.29.69,19.23.52,6.82,2.29,10.38t4,3.55a4.27,4.27,0,0,0,3.66-2.4,23.46,23.46,0,0,0,2.54-9.13q1-9.13,1-36.91,0-16.34-.92-22.44t-2.74-8.89A3.82,3.82,0,0,0,117.16,353.82Z" fill="none" stroke="#000"/><path d="M174.13,350.94h15.38v11.12h-8.74a43.73,43.73,0,0,1,3.32,9,54.4,54.4,0,0,1,1.17,11.42A51.11,51.11,0,0,1,182.55,400a28.21,28.21,0,0,1-7.37,11.62q-4.67,4.2-8.28,4.2c-.19,0-2.15-.17-5.86-.51-1.46,0-2.69,1-3.68,3a15.73,15.73,0,0,0-1.49,7.13,11.77,11.77,0,0,0,1.34,6,4.66,4.66,0,0,0,4.37,2.33l8.45-.21q10.25,0,14.11,4.65,5.52,6.48,5.52,19.91a45.78,45.78,0,0,1-2.54,15.62q-2.55,7-6.69,10.36a22.81,22.81,0,0,1-14.5,4.95,25.25,25.25,0,0,1-11.23-2.48,15.25,15.25,0,0,1-7.28-6.87,20.48,20.48,0,0,1-2.2-9.25,19.68,19.68,0,0,1,1.69-8.33,13.84,13.84,0,0,1,6.27-6.22q-6.35-6.47-6.35-18a36.73,36.73,0,0,1,2.59-13.54,29,29,0,0,1,8.21-11.42,27.85,27.85,0,0,1-9.48-13,54.83,54.83,0,0,1-2.93-18.7q0-13.85,5.47-24T164.75,347Q169.3,347,174.13,350.94ZM162.8,458.28q-5,0-6.59,1.71c-1.86,2.09-2.78,4.92-2.78,8.49a16.13,16.13,0,0,0,2.88,9.35q2.88,4.2,10.84,4.2,6.78,0,10.67-3.74t3.88-10.51a11,11,0,0,0-.73-4.25,7.47,7.47,0,0,0-4-4.14Q174.32,458.28,162.8,458.28Zm2.88-105q-2.84,0-4.78,5.91t-2,24.51q0,15.06,1.93,20.67t4.57,5.61c1.95,0,3.58-1.86,4.88-5.56s2-10.92,2-21.63q0-18.09-2.19-24.66C169,354.88,167.57,353.27,165.68,353.27Z" fill="none" stroke="#000"/><path d="M215.18,447.93l-14.75-70.46q-3.31-16-4.9-19.62a11,11,0,0,0-3.84-5.09V349H216v3.76a4,4,0,0,0-3.37,1.93,8.4,8.4,0,0,0-1,4.17q0,3.87,2.44,15.25l7.81,37.21,5.32-28.77q2.88-15.35,2.88-21.35a12.86,12.86,0,0,0-1.19-6,4.79,4.79,0,0,0-4.23-2.44V349h15.29v3.76q-2.25.51-3.67,3.61t-4.73,21.1l-13,70.46q-4.94,26.43-7.32,32.53-3.37,8.54-8.45,8.54-4,0-6.57-4.83a24.89,24.89,0,0,1-2.51-11.64,23.83,23.83,0,0,1,1.73-9.76c1.16-2.58,2.58-3.86,4.27-3.86s2.94,1.08,3.93,3.25,1.51,5.52,1.54,10.06a20,20,0,0,0,.44,5c.26.74.64,1.11,1.12,1.11q1.17,0,2.49-2.94,2-4.28,4.59-19.52Z" fill="none" stroke="#000"/><path d="M42,567.59v39.6q0,11.47.66,14.44A9.88,9.88,0,0,0,45,626.37c1.11,1.18,3.17,1.77,6.2,1.77V632H17.34v-3.86c3.06,0,5.13-.6,6.22-1.82a10.43,10.43,0,0,0,2.3-4.74q.66-2.93.66-14.39V515.47q0-11.46-.66-14.43a10.05,10.05,0,0,0-2.32-4.75q-1.66-1.77-6.2-1.77v-3.85H48.1q12,0,17.58,3.54t9.08,13.08a64.68,64.68,0,0,1,3.51,22.36q0,15.63-5.27,25.85a22.4,22.4,0,0,1-9.42,9.69L79.49,613q3.14,9.29,4.45,11.57c1.33,2.15,2.88,3.34,4.64,3.54V632H67.73L46.39,567.59Zm0-69.32v61.92h2.79q6.78,0,10.15-2.66t5.3-9.59q1.94-6.93,1.93-18.08,0-16.15-3.54-23.87t-11.4-7.72Z" fill="none" stroke="#000"/><path d="M144,547.18h20.31v3.93a9.17,9.17,0,0,0-5.37,4.18q-2,3.16-5.08,14.76a242.44,242.44,0,0,1-8.79,25.89q5,9.25,8.11,12.89c1.46,1.68,2.9,2.52,4.3,2.52q3.62,0,6.54-9.77l2,2.21q-4,16.23-8.54,23.07Q154,632,149.6,632a10.33,10.33,0,0,1-7.25-3.37Q138.9,625.26,134,616q-6.1,8.46-11.47,12.24A19.16,19.16,0,0,1,111.32,632q-9.28,0-14.75-10.38T91.1,597.25q0-15.12,5.23-26.3a54.76,54.76,0,0,1,15.18-19.34q-1.28-6.54-1.9-12.79a117.88,117.88,0,0,1-.64-12.09q0-16.12,5.49-26.85t14-10.73q6.88,0,10.92,7.1a33.1,33.1,0,0,1,4,16.58q0,11.38-4.12,19.49t-13.06,14.86a286.38,286.38,0,0,0,16.16,43.21q7.17-16.62,7.18-28.5a16.73,16.73,0,0,0-1.42-7.21,6,6,0,0,0-4.15-3.57Zm-31.15,10.88a20.12,20.12,0,0,0-5.52,7.25,33.14,33.14,0,0,0-2.29,12.59,68.36,68.36,0,0,0,2.66,18.84q2.65,9.38,6.42,14.51t7.52,5.14a7.42,7.42,0,0,0,4.17-1.67,28.06,28.06,0,0,0,5.06-5A256.6,256.6,0,0,1,112.88,558.06Zm11.72-16.93a20.25,20.25,0,0,0,6.88-8.41,29.75,29.75,0,0,0,1.76-10.83q0-11.28-2.88-19-1.91-5.13-4.69-5.13-2.3,0-3.93,3.72a25.58,25.58,0,0,0-1.64,10.08,75.88,75.88,0,0,0,.79,10.57Q121.67,527.75,124.6,541.13Z" fill="none" stroke="#000"/><path d="M171.12,632v-3.86h2.19a5.33,5.33,0,0,0,4.42-1.92A12.72,12.72,0,0,0,180,621q.45-2.19.44-13.13v-93q0-10.85-.54-13.55a10.73,10.73,0,0,0-2.17-4.75,5.38,5.38,0,0,0-4.42-2h-2.19v-3.85h29.63q11.87,0,19.1,6.88,8.84,8.43,13.4,25.53t4.56,38.67a156,156,0,0,1-2.24,27.46A94.78,94.78,0,0,1,229.76,610a45.58,45.58,0,0,1-8.23,13.13,31.71,31.71,0,0,1-11.4,7.66c-2,.83-5.11,1.25-9.38,1.25Zm25.24-133.31V609a81.85,81.85,0,0,0,.39,10.73,6.27,6.27,0,0,0,1.32,3,4.69,4.69,0,0,0,3.81,1.57q8.15,0,12.45-11.88,5.85-16.06,5.86-49.83,0-27.2-4-43.46Q213,506.4,208,501.82,204.52,498.6,196.36,498.69Z" fill="none" stroke="#000"/></svg>