<svg xmlns="http://www.w3.org/2000/svg" viewBox="0 0 174.31 595.2"><title>wasted06</title><path d="M43.42,595.2s1.9-6.73-2.15-10.3c0,0-5.54-13.35,2.59-18.35v-1.2l4.5,3s-5.2,4.59-3.75,13.06l2.54,5.32s1,1.69,1.21,7.86Z" fill="none" stroke="#231f20" stroke-miterlimit="10" stroke-width="0.75"/><path d="M61.91,595.2s3.75-14,5.56-14.92" fill="none" stroke="#231f20" stroke-miterlimit="10" stroke-width="0.75"/><path d="M29.37,555.56s-3.63-1.45-4.11-2.9c0,0,.85-3.75-5.08-5.69,0,0-4.59-.36-6.29-1.33,0,0,.24-1.57-1.81-2.42l1.81-2.17a4.31,4.31,0,0,0,3.39,2.9,14,14,0,0,1,4.59-.24s3.51,2.9,4.48,4.59c0,0,1.81,3.15,4.23,3.15Z" fill="none" stroke="#231f20" stroke-miterlimit="10" stroke-width="0.75"/><path d="M36.44,535.56s-10-11.75-7.71-21.24" fill="none" stroke="#231f20" stroke-miterlimit="10" stroke-width="0.75"/><path d="M24.34,511.71s.36,8.78,0,10.67c0,0,1.07,7.84,7.6,10.8l2.37-.48" fill="none" stroke="#231f20" stroke-miterlimit="10" stroke-width="0.75"/><path d="M50,544.24s20.15,9.88,22.07,11.32c0,0,2.67-1.5,6.25-13.87,0,0,4.84-10.72,5.23-13.27a64.14,64.14,0,0,0-5.87-5.23s-13.91-6-19.9-6.5a15.77,15.77,0,0,0-1.53,6.63s-2.68,12.5-4,13.65A74.2,74.2,0,0,0,50,544.24Z" fill="none" stroke="#231f20" stroke-miterlimit="10" stroke-width="0.75"/><path d="M42.09,556.1s1.4-5.61,3.19-6c0,0,31,18.91,53.3,32.24,12.14,7.25,21.71,12.85,22.34,12.85H105s-3.81-2.26-9.54-5.7C78.16,579.14,43.33,558.11,42.09,556.1Z" fill="none" stroke="#231f20" stroke-miterlimit="10" stroke-width="0.75"/><path d="M57.71,566.55s4-5,3.73-6.6" fill="none" stroke="#231f20" stroke-miterlimit="10" stroke-width="0.75"/><path d="M77.16,578.48s3.67-2.58,3.61-6.83" fill="none" stroke="#231f20" stroke-miterlimit="10" stroke-width="0.75"/><path d="M95.44,589.5s3.35-3.4,3.14-7.15" fill="none" stroke="#231f20" stroke-miterlimit="10" stroke-width="0.75"/><path d="M58.38,548.39s8.48-25.4,10.94-28.5" fill="none" stroke="#231f20" stroke-miterlimit="10" stroke-width="0.75"/><path d="M67.05,552.79S76.78,524.05,78.78,524" fill="none" stroke="#231f20" stroke-miterlimit="10" stroke-width="0.75"/><line x1="52.29" y1="536.97" x2="75.61" y2="549.62" fill="none" stroke="#231f20" stroke-miterlimit="10" stroke-width="0.75"/><path d="M54.78,529.6s16.57,7.22,23.54,12.09" fill="none" stroke="#231f20" stroke-miterlimit="10" stroke-width="0.75"/><path d="M56.25,523.32a105.12,105.12,0,0,0,10.8,3.54s12.09,4.94,14.51,7.28" fill="none" stroke="#231f20" stroke-miterlimit="10" stroke-width="0.75"/><path d="M97,595.2s-67.73-36.4-67.68-38c0,0,16.74-54,19-56.2,0,0,15.11.95,45.86,10.73,0,0,32.59,8.86,40.46,10.87,0,0,14.46,5.44,23.62,7,0,0,12.79,5.83,16,7.37" fill="none" stroke="#231f20" stroke-miterlimit="10" stroke-width="0.75"/><path d="M134,595.2s-35.95-25-47.73-32c0,0,5.28-31.71,12.28-38.44,0,0,22,2.3,32.24,8.26l43.48,18.21" fill="none" stroke="#231f20" stroke-miterlimit="10" stroke-width="0.75"/><path d="M94.07,532.75s45.94,11.41,79.59,30.5" fill="none" stroke="#231f20" stroke-miterlimit="10" stroke-width="0.75"/><path d="M90.29,562l5.15,2.14,1.07-4.75s-3-1.83-4.84-1.83Z" fill="none" stroke="#231f20" stroke-miterlimit="10" stroke-width="0.75"/><path d="M92.58,554l3.93,1.55s1.86-4.51,1.51-5.45c0,0-2.93-1.77-4-1.42A34.62,34.62,0,0,0,92.58,554Z" fill="none" stroke="#231f20" stroke-miterlimit="10" stroke-width="0.75"/><path d="M94.71,546.45l4.6,1.55,1.89-4.7,8.27,3.15a11.7,11.7,0,0,0,2.13-4.76s-9.59-5.55-14.17-5.57C97.43,536.12,93.76,542.55,94.71,546.45Z" fill="none" stroke="#231f20" stroke-miterlimit="10" stroke-width="0.75"/><path d="M174.31,579.51l-13.94,8.62c-9.33,6.38-13.23,6.5-13.23,6.5-1.65-.57-21-14.29-21-14.29-3-2.72-19-12-19-12s2.36-20.32,8.26-22.8c0,0,31.21,9.55,58.29,27.15" fill="none" stroke="#231f20" stroke-miterlimit="10" stroke-width="0.75"/><path d="M108.65,559.46s10.36,4.45,11.66,5.34c0,0,25.08,15.73,25.88,16.63,0,0,12,8.12,12.39,7.89" fill="none" stroke="#231f20" stroke-miterlimit="10" stroke-width="0.75"/><path d="M111.12,551.18s10.38,2.67,13.27,3.67c0,0,28.86,16,32.35,16.92l15,9.3" fill="none" stroke="#231f20" stroke-miterlimit="10" stroke-width="0.75"/><path d="M116.44,573.87s8.37-23.47,11.25-24" fill="none" stroke="#231f20" stroke-miterlimit="10" stroke-width="0.75"/><path d="M127.69,581.45s11.59-21.28,17.68-24.19" fill="none" stroke="#231f20" stroke-miterlimit="10" stroke-width="0.75"/><path d="M139.52,589.69s8.76-9.86,10.55-12.15c0,0,10.3-9.17,14.11-10.66" fill="none" stroke="#231f20" stroke-miterlimit="10" stroke-width="0.75"/><path d="M105.13,535.8s3.24-7.71,3.52-9.51" fill="none" stroke="#231f20" stroke-miterlimit="10" stroke-width="0.75"/><path d="M116.44,539.27s4-8.95,5.62-9.82" fill="none" stroke="#231f20" stroke-miterlimit="10" stroke-width="0.75"/><path d="M133.61,545.18s1.28-7.21,5.51-8.64" fill="none" stroke="#231f20" stroke-miterlimit="10" stroke-width="0.75"/><path d="M38.65,524.94H32.42V511.71l-13.06-.89s3.34-80.13,6.31-82.72c0,0,13.85-.19,22.69,2.22" fill="none" stroke="#231f20" stroke-miterlimit="10" stroke-width="0.75"/><polygon points="30.58 495.06 36.44 495.06 36.44 490.79 30.58 490.05 30.58 495.06" fill="none" stroke="#231f20" stroke-miterlimit="10" stroke-width="0.75"/><path d="M33.86,481.33h4.61v-4.81h-5S31.85,479.66,33.86,481.33Z" fill="none" stroke="#231f20" stroke-miterlimit="10" stroke-width="0.75"/><path d="M32.87,470h5.6v-5.94h-5S31.17,468.35,32.87,470Z" fill="none" stroke="#231f20" stroke-miterlimit="10" stroke-width="0.75"/><path d="M35.67,455.73l4.65-.74v-4.26H35.67S33.61,453.51,35.67,455.73Z" fill="none" stroke="#231f20" stroke-miterlimit="10" stroke-width="0.75"/><path d="M33.51,428.3s1.62-8.73,14-7.44" fill="none" stroke="#231f20" stroke-miterlimit="10" stroke-width="0.75"/><path d="M38.47,428.67s1.61-4.77,9.89-4.16" fill="none" stroke="#231f20" stroke-miterlimit="10" stroke-width="0.75"/><path d="M40.53,447.2s-1.59-6.67,3.36-6.67a105.58,105.58,0,0,1,8.4,9.27s2.07,3.52,7.29-3.34l-2-.48s-2.34,3.22-5.91.35c0,0-3.21-8-7.13-8.44,0,0-1-.34-3.65,2.53C40.91,440.42,38.59,441.12,40.53,447.2Z" fill="none" stroke="#231f20" stroke-miterlimit="10" stroke-width="0.75"/><path d="M59.58,446.46s-.63-6.22,0-8.22" fill="none" stroke="#231f20" stroke-miterlimit="10" stroke-width="0.75"/><path d="M63.26,445.11s13.82,8.09,26.25-2.26" fill="none" stroke="#231f20" stroke-miterlimit="10" stroke-width="0.75"/><path d="M63.26,442.35a17.77,17.77,0,0,0,12.34,3.57,36.27,36.27,0,0,0,13.13-5.33" fill="none" stroke="#231f20" stroke-miterlimit="10" stroke-width="0.75"/><path d="M94.22,511.71s4.71-13.34,8.85-15c0,0,8.74-6.85,17.85-8.88" fill="none" stroke="#231f20" stroke-miterlimit="10" stroke-width="0.75"/><path d="M101.33,513.64s4.21-12.24,8-15.05c0,0,6.63-6.4,12.25-7.53,0,0,5.6-1.57,8.7-5.05" fill="none" stroke="#231f20" stroke-miterlimit="10" stroke-width="0.75"/><path d="M107.11,515.2s2.7-9.41,7.19-12.79c0,0,7.63-8.42,16-11.12" fill="none" stroke="#231f20" stroke-miterlimit="10" stroke-width="0.75"/><path d="M108.65,510.94a28.15,28.15,0,0,0,13.41,5.75,123.35,123.35,0,0,0,17.06-.68" fill="none" stroke="#231f20" stroke-miterlimit="10" stroke-width="0.75"/><path d="M113,503.6s2.36,1.59,5.71,7.34c0,0,2.79,2,10.54.77,0,0,4.5-1.65,5.39-2.55" fill="none" stroke="#231f20" stroke-miterlimit="10" stroke-width="0.75"/><path d="M117.56,503.6s-.11,5.11,7.19,5.22a6.58,6.58,0,0,0,7.31-5.22" fill="none" stroke="#231f20" stroke-miterlimit="10" stroke-width="0.75"/><path d="M136.53,483.53c-2.31,9.21,8.41,27.41,8.41,27.41,1.38,4.16,11,12.76,11,12.76,3.92,5.06,17.68,9,17.68,9" fill="none" stroke="#231f20" stroke-miterlimit="10" stroke-width="0.75"/><path d="M173.66,524.81s-8.12-5.82-10.54-8.07c0,0-11.16-10.65-13.24-15.25,0,0-8.28-14.27-6.21-19.22" fill="none" stroke="#231f20" stroke-miterlimit="10" stroke-width="0.75"/><path d="M174.31,511.71s-17.85-9.65-22.46-31.28" fill="none" stroke="#231f20" stroke-miterlimit="10" stroke-width="0.75"/><path d="M173.66,496.07s-10-4.13-11.81-17.14" fill="none" stroke="#231f20" stroke-miterlimit="10" stroke-width="0.75"/><path d="M173.66,485.33s-4.32-1.8-3.86-7.9" fill="none" stroke="#231f20" stroke-miterlimit="10" stroke-width="0.75"/><path d="M161.29,515s7.86-.54,8.47-6.08" fill="none" stroke="#231f20" stroke-miterlimit="10" stroke-width="0.75"/><path d="M157.37,510.94s6.07-2.52,8.15-6.05" fill="none" stroke="#231f20" stroke-miterlimit="10" stroke-width="0.75"/><path d="M154.93,507.85s2.83-3.43,9.25-4.32" fill="none" stroke="#231f20" stroke-miterlimit="10" stroke-width="0.75"/><path d="M139.82,500.57s4.51-4.07,7.46-4.05" fill="none" stroke="#231f20" stroke-miterlimit="10" stroke-width="0.75"/><path d="M138.27,496.52s6.43-2.56,7.64-3" fill="none" stroke="#231f20" stroke-miterlimit="10" stroke-width="0.75"/><line x1="136.92" y1="491.93" x2="144.28" y2="489.2" fill="none" stroke="#231f20" stroke-miterlimit="10" stroke-width="0.75"/><path d="M103.07,496.68s-7.74-2.44-11.19-2.44c0,0-5.41-.23-7.14,0,0,0-3.29,1.44-6,2.44,0,0-4.16,1.59-6.35,1.36a8.15,8.15,0,0,1-5.88-2.19l.5-1.61s6.42,1.45,9.75.78a17.29,17.29,0,0,1,7.6-3.09,44.17,44.17,0,0,1,10.15,0s7.82,2.19,9.65,3.92" fill="none" stroke="#231f20" stroke-miterlimit="10" stroke-width="0.75"/><path d="M96.14,506.91s-6-2.77-8.17-5.42c0,0-4.59-5.48-4.42-6.65" fill="none" stroke="#231f20" stroke-miterlimit="10" stroke-width="0.75"/><path d="M97.69,503.6s-4.77-1-7-3.84l-3.92-5.62" fill="none" stroke="#231f20" stroke-miterlimit="10" stroke-width="0.75"/><path d="M86.31,491.75s-3-2-4-6.95c0,0-1.57-7.94-3.55-9.21,0,0-3.42-4.6-5.86-4.95l-1.07,1.62A13.37,13.37,0,0,1,76,477s2.69,6.91,2.79,7.6,1.21,5.84,3.59,7.75" fill="none" stroke="#231f20" stroke-miterlimit="10" stroke-width="0.75"/><path d="M86.81,433.17s-18.6,4.71-24,4.71" fill="none" stroke="#231f20" stroke-miterlimit="10" stroke-width="0.75"/><path d="M83,429.28a94,94,0,0,1-29.15,7.13s-3-26.27-3.64-30.23c0,0-3.64-30.1-3.89-32.34,0,0,2.51-5.81,10.55-8,0,0,11.14-4.1,13.35-6l25.82-9c-3.26.13-29,8.05-29,8.05C61.3,361.16,51,365.39,51,365.39c-7.41.79-7.63,4.62-7.63,4.62-2,7.66,2,33.79,2,33.79.12,9.77,5.38,35.54,5.38,35.54s2.79-2.4,11-1.41l.41,7.19c-4.11,1.81-6.66,0-6.66,0l1.15-7.19" fill="none" stroke="#231f20" stroke-miterlimit="10" stroke-width="0.75"/><path d="M99.17,482.27l8.4,3.06s.79-10.69,0-13.38l-12.25-5.58A31.48,31.48,0,0,1,99.17,482.27Z" fill="none" stroke="#231f20" stroke-miterlimit="10" stroke-width="0.75"/><polyline points="95.32 466.38 101.33 464.13 113 468.09 107.57 471.95" fill="none" stroke="#231f20" stroke-miterlimit="10" stroke-width="0.75"/><polyline points="107.57 485.33 112.39 481.48 113 468.09" fill="none" stroke="#231f20" stroke-miterlimit="10" stroke-width="0.75"/><line x1="102.23" y1="479.61" x2="102.23" y2="473.84" fill="none" stroke="#231f20" stroke-miterlimit="10" stroke-width="0.75"/><line x1="104.2" y1="479.95" x2="104.2" y2="474.63" fill="none" stroke="#231f20" stroke-miterlimit="10" stroke-width="0.75"/><polygon points="109.46 480.73 110.97 478.66 110.97 477.54 109.46 478.16 109.46 480.73" fill="none" stroke="#231f20" stroke-miterlimit="10" stroke-width="0.75"/><polygon points="109.46 475.19 110.97 473.84 110.97 471.95 108.95 472.56 109.46 475.19" fill="none" stroke="#231f20" stroke-miterlimit="10" stroke-width="0.75"/><path d="M123.27,478.4s-.28-10-2.35-14.62" fill="none" stroke="#231f20" stroke-miterlimit="10" stroke-width="0.75"/><path d="M127.35,475.85s-2-9.46-.9-12.07" fill="none" stroke="#231f20" stroke-miterlimit="10" stroke-width="0.75"/><path d="M132.06,475.85s-1.58-10.37-1.22-12.07" fill="none" stroke="#231f20" stroke-miterlimit="10" stroke-width="0.75"/><path d="M136.92,475.85s13.21-5.71,18.65-5.21c0,0-2.15-13.32-2.95-14.22,0,0-13.71,2.26-16.88,5.21a51.42,51.42,0,0,0,1.18,5.67S135.5,474.21,136.92,475.85Z" fill="none" stroke="#231f20" stroke-miterlimit="10" stroke-width="0.75"/><path d="M161.29,469.82s-.28-12.72-.85-13.4" fill="none" stroke="#231f20" stroke-miterlimit="10" stroke-width="0.75"/><path d="M164.86,468.09s-2.55-11-1.78-14.39" fill="none" stroke="#231f20" stroke-miterlimit="10" stroke-width="0.75"/><path d="M136.2,457.1s5.66-3,9.45-3a40.26,40.26,0,0,0,7.56-1.36" fill="none" stroke="#231f20" stroke-miterlimit="10" stroke-width="0.75"/><path d="M135.74,453.24a18.05,18.05,0,0,1,7.81-2.83s6.51-1.3,9.66-2.29" fill="none" stroke="#231f20" stroke-miterlimit="10" stroke-width="0.75"/><path d="M173.66,439.19c-5.7,0-43.81,8.93-43.81,8.93l-.46-5.07s38.46-9.52,44.27-9.52" fill="none" stroke="#231f20" stroke-miterlimit="10" stroke-width="0.75"/><path d="M132.06,444.63s37.49-8.61,41.6-8.61" fill="none" stroke="#231f20" stroke-miterlimit="10" stroke-width="0.75"/><path d="M173.66,406.1S156.05,410,152.86,411c0,0-13.51,3.06-15.94,3.06,0,0-10.12,1.81-12.11,1.58a6.64,6.64,0,0,1-.93-4.75s8.67-3.18,13-3.29c0,0,13.37-2.38,16.29-3.06l20.45-5.1" fill="none" stroke="#231f20" stroke-miterlimit="10" stroke-width="0.75"/><path d="M129.39,412.34s16.51-2.72,19.31-2.84c0,0,14.16-2.49,25-6.8" fill="none" stroke="#231f20" stroke-miterlimit="10" stroke-width="0.75"/><polygon points="147.28 433.53 150.81 431.15 145.91 417.32 142.76 417.32 147.28 433.53" fill="none" stroke="#231f20" stroke-miterlimit="10" stroke-width="0.75"/><path d="M153.21,431.49l2.36-1.7s-1.79-11.11-2.71-13l-3.64.56S151.65,424.46,153.21,431.49Z" fill="none" stroke="#231f20" stroke-miterlimit="10" stroke-width="0.75"/><path d="M159.56,429.45l2.29-.8-.56-13-4.47,1.12S159.92,426.39,159.56,429.45Z" fill="none" stroke="#231f20" stroke-miterlimit="10" stroke-width="0.75"/><polygon points="169.76 427.07 173.66 425.43 173.66 423.1 169.76 423.1 169.76 427.07" fill="none" stroke="#231f20" stroke-miterlimit="10" stroke-width="0.75"/><polygon points="169.76 418.57 172.79 417.32 172.79 414.38 168.83 414.38 169.76 418.57" fill="none" stroke="#231f20" stroke-miterlimit="10" stroke-width="0.75"/><path d="M168.83,465.48a2.51,2.51,0,0,0,2-2.83s-.85-1.81-2-.79C168.83,461.86,167.7,463.22,168.83,465.48Z" fill="none" stroke="#231f20" stroke-miterlimit="10" stroke-width="0.75"/><path d="M168.32,454.47s3.07.34,3-2.39c0,0-.42-1-2.13-.77C169.17,451.31,167.56,451.31,168.32,454.47Z" fill="none" stroke="#231f20" stroke-miterlimit="10" stroke-width="0.75"/><path d="M168.83,447.39s2.53.26,2.88-1.87c0,0-.1-1.18-2.13-.89C169.58,444.63,167.72,445.09,168.83,447.39Z" fill="none" stroke="#231f20" stroke-miterlimit="10" stroke-width="0.75"/><path d="M125.14,438.23s2.58-.28,3.15-1c0,0,.21-2.71-.36-2.86a10.89,10.89,0,0,0-2.79.65S124.64,437.52,125.14,438.23Z" fill="none" stroke="#231f20" stroke-miterlimit="10" stroke-width="0.75"/><path d="M123.73,429.87a16,16,0,0,0,2.9-1.07s.22-3.38-.53-3.38a8.62,8.62,0,0,0-2.83,1.23S122.75,428.87,123.73,429.87Z" fill="none" stroke="#231f20" stroke-miterlimit="10" stroke-width="0.75"/><path d="M132.87,437l3.33-.93s-.33-3.94-1-3.94a12.51,12.51,0,0,0-3.09.93S132.29,436.09,132.87,437Z" fill="none" stroke="#231f20" stroke-miterlimit="10" stroke-width="0.75"/><path d="M131.42,428.58,135,427s-.36-3.58-1.21-3.79c0,0-2.94.66-3.44.9C130.36,424.12,130.55,427.72,131.42,428.58Z" fill="none" stroke="#231f20" stroke-miterlimit="10" stroke-width="0.75"/><path d="M95.32,427.22s11.66-3.14,17-4" fill="none" stroke="#231f20" stroke-miterlimit="10" stroke-width="0.75"/><path d="M94.54,423.79a23.27,23.27,0,0,1,8.22-2.29s5.51-.14,8.58-2.21" fill="none" stroke="#231f20" stroke-miterlimit="10" stroke-width="0.75"/><path d="M92.9,417.93s14.3-2.22,19.44-3.44" fill="none" stroke="#231f20" stroke-miterlimit="10" stroke-width="0.75"/><path d="M112.34,454.61l2.29-2L110,432l-3.12,1.52s.37,6.92,2.11,11.28C109,444.81,109.41,451.39,112.34,454.61Z" fill="none" stroke="#231f20" stroke-miterlimit="10" stroke-width="0.75"/><path d="M106,456l1.94-2.15s-1.15-5.79-1.94-7.22c0,0-2.79-9.94-2.15-12.87,0,0-2.64-.2-3,1.72a50.92,50.92,0,0,0,3,10s-.7,5.84.33,7.56C104.16,453,104.77,455.68,106,456Z" fill="none" stroke="#231f20" stroke-miterlimit="10" stroke-width="0.75"/><path d="M100.05,456.75s1.87-.5,2.18-1.86l-1.4-6.77-2.14-7.53L98,436l-2.65.35a25.24,25.24,0,0,0,.79,5.37s.93,5,1.79,6.38l.88,7.13A2.2,2.2,0,0,0,100.05,456.75Z" fill="none" stroke="#231f20" stroke-miterlimit="10" stroke-width="0.75"/><path d="M173.66,477.43s-9.89.84-14.1,1.71c0,0-10,1.67-12.28,2.24,0,0-7.27,1.18-9,1.67l-1.74.48-4.47,1.8c-4.38,17.87,4.47,26.38,4.47,26.38,2.44,6.48,16.68,16.78,16.68,16.78" fill="none" stroke="#231f20" stroke-miterlimit="10" stroke-width="0.75"/><path d="M132.06,485.33s-7.75,1.77-9.6,1.77c0,0-6.15,1.21-9.46,1.61,0,0-4.84,1.22-8,1.85,0,0-3.32-4.4-4.19-7" fill="none" stroke="#231f20" stroke-miterlimit="10" stroke-width="0.75"/><path d="M96.14,466.07S86,431.86,86.06,428.58c0,0-3-12.36-6-13.72,0,0,.8-3.22,3.14-3.3,0,0,15.84-2.09,19.45-2.65,0,0,13.79-2.81,18.3-3.54,0,0,13.92-3.45,16.17-3.77,0,0,11.28-2.9,14.44-3.06,0,0,8.88-1.93,12.37-2.73,0,0,8.49-1.61,10.41-1.61" fill="none" stroke="#231f20" stroke-miterlimit="10" stroke-width="0.75"/><path d="M174.31,389.54s-9.16,1.37-11.38,1.93c0,0-9.58,2.49-11.4,3.3l-9.3,2.73L135,399.75l-8.91,2.33s-7.9,1.85-9.67,2.25c0,0-7.62,1.12-9.59,1.28a53.45,53.45,0,0,1-7.67,1.29S91.76,408,91,408c0,0-3.45.56-5.62,1,0,0-2.84,1.18-3.67,3" fill="none" stroke="#231f20" stroke-miterlimit="10" stroke-width="0.75"/><line x1="50" y1="484.49" x2="51.26" y2="483.53" fill="none" stroke="#231f20" stroke-miterlimit="10" stroke-width="0.75"/><line x1="58.38" y1="485.28" x2="59.44" y2="484.49" fill="none" stroke="#231f20" stroke-miterlimit="10" stroke-width="0.75"/><line x1="65.95" y1="486.36" x2="67.36" y2="485.28" fill="none" stroke="#231f20" stroke-miterlimit="10" stroke-width="0.75"/><line x1="51.84" y1="475.32" x2="53.16" y2="473.91" fill="none" stroke="#231f20" stroke-miterlimit="10" stroke-width="0.75"/><line x1="58.38" y1="474.61" x2="59.58" y2="473.16" fill="none" stroke="#231f20" stroke-miterlimit="10" stroke-width="0.75"/><line x1="64.54" y1="476.52" x2="66.55" y2="474.9" fill="none" stroke="#231f20" stroke-miterlimit="10" stroke-width="0.75"/><line x1="51.84" y1="462.87" x2="53.16" y2="461.54" fill="none" stroke="#231f20" stroke-miterlimit="10" stroke-width="0.75"/><line x1="59.58" y1="462.87" x2="61.05" y2="461.54" fill="none" stroke="#231f20" stroke-miterlimit="10" stroke-width="0.75"/><line x1="66.55" y1="464.08" x2="67.36" y2="462.87" fill="none" stroke="#231f20" stroke-miterlimit="10" stroke-width="0.75"/><line x1="57.65" y1="453.23" x2="59.3" y2="451.74" fill="none" stroke="#231f20" stroke-miterlimit="10" stroke-width="0.75"/><line x1="67.94" y1="455.73" x2="69.32" y2="454.23" fill="none" stroke="#231f20" stroke-miterlimit="10" stroke-width="0.75"/><line x1="74.33" y1="466.07" x2="75.99" y2="464.44" fill="none" stroke="#231f20" stroke-miterlimit="10" stroke-width="0.75"/><line x1="78.65" y1="455.73" x2="80.03" y2="454.23" fill="none" stroke="#231f20" stroke-miterlimit="10" stroke-width="0.75"/><line x1="88.73" y1="455.73" x2="89.51" y2="454.23" fill="none" stroke="#231f20" stroke-miterlimit="10" stroke-width="0.75"/><line x1="87.78" y1="468.04" x2="89.12" y2="466.37" fill="none" stroke="#231f20" stroke-miterlimit="10" stroke-width="0.75"/><line x1="84.04" y1="477.72" x2="85.37" y2="476.52" fill="none" stroke="#231f20" stroke-miterlimit="10" stroke-width="0.75"/><line x1="90.52" y1="478.92" x2="91.35" y2="477.72" fill="none" stroke="#231f20" stroke-miterlimit="10" stroke-width="0.75"/><line x1="93.01" y1="469.26" x2="94.22" y2="467.68" fill="none" stroke="#231f20" stroke-miterlimit="10" stroke-width="0.75"/><path d="M135,399.75s-12.54-5.84-22.67-7.23c0,0-15.22-1.56-18.72-3.73,0,0,.07-13,.92-15.37,0,0,4.83-19.91,4.63-23.15,0,0,6.3-23.88,8.4-25.28l32.84,8.23s15.54,3.41,18.09,3.41c0,0,14,3.26,15.81,4" fill="none" stroke="#231f20" stroke-miterlimit="10" stroke-width="0.75"/><path d="M99.67,382.77l3,.42s-.66-4.36.32-5.08a3.81,3.81,0,0,0-2.11-.94S99.05,380.39,99.67,382.77Z" fill="none" stroke="#231f20" stroke-miterlimit="10" stroke-width="0.75"/><path d="M102.62,369.08l2.55.52s.74-4.56,1.67-5.19l-3-.41S102.56,364.83,102.62,369.08Z" fill="none" stroke="#231f20" stroke-miterlimit="10" stroke-width="0.75"/><path d="M106.42,355.39h2.28s.72-3.84,1.45-4.46l-2.39-1.14S106.52,351.34,106.42,355.39Z" fill="none" stroke="#231f20" stroke-miterlimit="10" stroke-width="0.75"/><path d="M116.48,350.27s8.74,1.38,10.18,1.49l1.37-8.51s-10-.93-11.55-.93C116.48,342.32,114.72,347.75,116.48,350.27Z" fill="none" stroke="#231f20" stroke-miterlimit="10" stroke-width="0.75"/><path d="M114.63,368.25l9.1,2.7,1.17-4.15-9.21-2.8A26.78,26.78,0,0,0,114.63,368.25Z" fill="none" stroke="#231f20" stroke-miterlimit="10" stroke-width="0.75"/><path d="M113,375.51s9.11,3,10.78,3.11l.74-3.11s-8.61-4.15-10.58-4.15A9,9,0,0,0,113,375.51Z" fill="none" stroke="#231f20" stroke-miterlimit="10" stroke-width="0.75"/><path d="M112.34,382.67s7.8,2.07,10.79,2.18a30.44,30.44,0,0,0,.6-3.11s-8.57-2.8-11.39-3.12C112.34,378.62,111.12,379.56,112.34,382.67Z" fill="none" stroke="#231f20" stroke-miterlimit="10" stroke-width="0.75"/><path d="M129.39,374s4.5-12.17,3.79-17.73c0,0,.61-9.81,3-13.48" fill="none" stroke="#231f20" stroke-miterlimit="10" stroke-width="0.75"/><path d="M134,373.42s3.6-9,4.19-11.58c0,0,1.65-9.23,1.53-10.65,0,0,.71-5.55,2-6.73" fill="none" stroke="#231f20" stroke-miterlimit="10" stroke-width="0.75"/><path d="M147.37,355.39s6.83,1.95,9.45,1.95c0,0,.48-6.85,1.07-8.16,0,0-8.86-1.06-10.52-1.06A15,15,0,0,0,147.37,355.39Z" fill="none" stroke="#231f20" stroke-miterlimit="10" stroke-width="0.75"/><path d="M142.77,365.62l23.4,4" fill="none" stroke="#231f20" stroke-miterlimit="10" stroke-width="0.75"/><path d="M141.69,369.6s16.08,4.72,22.71,5.39" fill="none" stroke="#231f20" stroke-miterlimit="10" stroke-width="0.75"/><path d="M140.16,373.42s17.26,5.2,23.17,5.2" fill="none" stroke="#231f20" stroke-miterlimit="10" stroke-width="0.75"/><polygon points="136.85 390.45 141.69 390.92 142.76 387.02 137.83 387.02 136.85 390.45" fill="none" stroke="#231f20" stroke-miterlimit="10" stroke-width="0.75"/><polygon points="148.2 391.51 151.75 391.51 152.4 388.97 148.7 388.2 148.2 391.51" fill="none" stroke="#231f20" stroke-miterlimit="10" stroke-width="0.75"/><line x1="174.31" y1="328.03" x2="152.86" y2="322.81" fill="none" stroke="#231f20" stroke-miterlimit="10" stroke-width="0.75"/><path d="M173.66,319.47h-5.42s-13.11,2.9-17.94,3.34c0,0-25.45,5.36-27.77,4.06,0,0-10.94-46.58-10.19-52.39,0,0,5.38-3.33,14.32-3.91,0,0,22.24-5.08,27.81-6.19l1.1-.2c2.22-.29,18.74-3.19,18.74-3.19" fill="none" stroke="#231f20" stroke-miterlimit="10" stroke-width="0.75"/><line x1="148.7" y1="323.14" x2="154.47" y2="304.96" fill="none" stroke="#231f20" stroke-miterlimit="10" stroke-width="0.75"/><path d="M119.76,314.05s23-9.82,27-12.14" fill="none" stroke="#231f20" stroke-miterlimit="10" stroke-width="0.75"/><path d="M113.81,286.16s22.65,5.45,31.65,4.58" fill="none" stroke="#231f20" stroke-miterlimit="10" stroke-width="0.75"/><path d="M150.3,283.05s-8.45-13.92-8.61-15.88" fill="none" stroke="#231f20" stroke-miterlimit="10" stroke-width="0.75"/><path d="M162.45,320.7s-.69-18.85.88-23.1c0,0-1.33-11.51-2.63-16,0,0-3.41-12.27-3.88-17.6" fill="none" stroke="#231f20" stroke-miterlimit="10" stroke-width="0.75"/><path d="M160.7,281.59a19.71,19.71,0,0,0-7.65.05c-3.86,1.24-6.15,5.43-6.15,5.43-3.84,8.13,1.3,16.15,1.3,16.15,10.65,4.06,14.66-3.53,14.66-3.53s9.25-6.63,11.45-6.85" fill="none" stroke="#231f20" stroke-miterlimit="10" stroke-width="0.75"/><path d="M162.86,309.5s8.46-4,10.8-5.09" fill="none" stroke="#231f20" stroke-miterlimit="10" stroke-width="0.75"/><path d="M161,282.74s10.89-2.24,13.32-3.54" fill="none" stroke="#231f20" stroke-miterlimit="10" stroke-width="0.75"/><path d="M158.37,272.4s13.36-2.64,15.29-3.51" fill="none" stroke="#231f20" stroke-miterlimit="10" stroke-width="0.75"/><path d="M107.57,325l-13-3.06s12.07-8.86,10.84-8.38c-13,5.1-13.58,7.87-13.58,7.87l13,9.95" fill="none" stroke="#231f20" stroke-miterlimit="10" stroke-width="0.75"/><line x1="105.36" y1="313.55" x2="119.76" y2="315.77" fill="none" stroke="#231f20" stroke-miterlimit="10" stroke-width="0.75"/><path d="M103.55,335s-20.72.39-23.52-.9c0,0-7.66-41.23-1.94-52.26" fill="none" stroke="#231f20" stroke-miterlimit="10" stroke-width="0.75"/><path d="M71.59,295.54c-.19-5.27-.39-10.31-.51-11.84,0,0,25.17-6,40.72-4.59" fill="none" stroke="#231f20" stroke-miterlimit="10" stroke-width="0.75"/><path d="M101.24,340.53s-23.58-2.29-25.87-2.72c0,0-4-19-3.29-27.77,0,0-.23-7.45-.49-14.5,0,0-2.29,3.19-6.81,0,0,0-1.12-.69-1.32-12.83,0,0-.72-15.85-1.36-19.26,0,0-3.38-20.77-3.92-23.38,0,0,0-2.3,6.23-5.21l18.71-9.73" fill="none" stroke="#231f20" stroke-miterlimit="10" stroke-width="0.75"/><line x1="75.37" y1="337.81" x2="80.03" y2="334.09" fill="none" stroke="#231f20" stroke-miterlimit="10" stroke-width="0.75"/><path d="M71.08,283.7l3.23-4.81s25.78-5.45,38-4.41c0,0,3.85-6.09,5.42-6.67,0,0,17.83-3.92,21.46-4.06,0,0,9.08-.58,13.83-1.74,0,0,18.93-3.78,20.61-4.79" fill="none" stroke="#231f20" stroke-miterlimit="10" stroke-width="0.75"/><line x1="86.66" y1="316.46" x2="86.66" y2="297.6" fill="none" stroke="#231f20" stroke-miterlimit="10" stroke-width="0.75"/><line x1="93.62" y1="310.48" x2="93.62" y2="296.71" fill="none" stroke="#231f20" stroke-miterlimit="10" stroke-width="0.75"/><line x1="100.43" y1="309.71" x2="100.43" y2="297.6" fill="none" stroke="#231f20" stroke-miterlimit="10" stroke-width="0.75"/><polygon points="86.66 289.17 102.62 288.5 102.62 286.16 86.66 286.16 86.66 289.17" fill="none" stroke="#231f20" stroke-miterlimit="10" stroke-width="0.75"/><rect x="108.28" y="301.91" width="1.87" height="4.02" fill="none" stroke="#231f20" stroke-miterlimit="10" stroke-width="0.75"/><rect x="107.57" y="295.54" width="2.58" height="4.16" fill="none" stroke="#231f20" stroke-miterlimit="10" stroke-width="0.75"/><polygon points="106.84 291.64 110.15 291.64 109.22 286.83 106.84 286.83 106.84 291.64" fill="none" stroke="#231f20" stroke-miterlimit="10" stroke-width="0.75"/><path d="M41.16,365.72c-1.37.54-4.16,6.48-4.16,6.48-1.69,4.65,1,9.46,1,9.46l2.47-.55s-2.56-10.8,1.37-15l.65-.93.31-.43c1.06-1.53,2.79-4,4-5.87,0,0,7-5.13,11.61-5.77l1.13.64s-2.4,2.6-11.13,4.51" fill="none" stroke="#231f20" stroke-miterlimit="10" stroke-width="0.75"/><path d="M56.1,350.07H53.21c-3.6.57-9,5.15-9,5.15A53.59,53.59,0,0,1,39.68,361c-6.06,3.67-6.56,8.53-6.56,8.53,0,8.53,1.06,11.07,1.06,11.07h1.76s.71-2.82-.88-4.23c0,0-1.73-4.44-.88-7.75,0,0,.62-4.24,6.2-6.35,0,0,3.74-4.08,5.36-4.93,0,0,6.34-3.81,7.47-4.65l4.08-.78" fill="none" stroke="#231f20" stroke-miterlimit="10" stroke-width="0.75"/><path d="M69.79,358.09A18.56,18.56,0,0,1,56,349.37s-4.16-3.78-6.46-4c0,0-7.68-.19-10.31.38l-3.71-.12s-3.45,2.24-6.46,2.11a3.69,3.69,0,0,1,0-4.16s3.39.06,5.5,0a54.9,54.9,0,0,1,10.66-2.5,23.6,23.6,0,0,1,8.35,4s7.16,4.28,9.91,5.79c0,0,2.88,3,6,3.49a74.63,74.63,0,0,0,9-1.26s-8.07-3.35-10-5c0,0-5.24-4-5.88-6.27,0,0-3.31-4.09-3-6.52" fill="none" stroke="#231f20" stroke-miterlimit="10" stroke-width="0.75"/><path d="M60.72,348.86a19.19,19.19,0,0,1-4.67-7.75s-1.55-3.2-2.63-3.84l-4.79-3.58a2,2,0,0,1,.9-2.24s4.67,4.42,5.75,5.7c0,0,3.27,6.72,4.93,7.74,0,0,7,6.84,12.35,6.91h2.17" fill="none" stroke="#231f20" stroke-miterlimit="10" stroke-width="0.75"/><path d="M85.87,353.36s-16.48-7.84-18.25-9.87c0,0-2.5-2.2-2.4-4.48" fill="none" stroke="#231f20" stroke-miterlimit="10" stroke-width="0.75"/><path d="M80,346.72s10,4.15,13,4.15" fill="none" stroke="#231f20" stroke-miterlimit="10" stroke-width="0.75"/><path d="M100.43,344.19s-6.12,6.3-22,2c0,0-5.45,0-11.15-6.24,0,0-11-7.06-13.39-9.86,0,0-4.88-5.81-6.75-6.43,0,0-6.18-4.15-10.71-5.09,0,0-5.34-.1-8.05,2.29,0,0,0-3.61,2.16-5.08a98.62,98.62,0,0,1,12.27,3.52s16.06,8.82,18,10.58a48.64,48.64,0,0,0,7.58,4.22s3.73,4.08,5.7,4.92a25.47,25.47,0,0,0,11,3.52s11.32,1.4,13.49-2" fill="none" stroke="#231f20" stroke-miterlimit="10" stroke-width="0.75"/><path d="M51.37,327.24S43,337.34,35.66,338.46a66.26,66.26,0,0,1-8,1.35l-1.35-2s5.28-.68,8-2.77c0,0,5.61-2.74,7.52-3.31,0,0,6.25-4.5,6.73-6.74" fill="none" stroke="#231f20" stroke-miterlimit="10" stroke-width="0.75"/><path d="M46,323.87s-6.73,6.4-19.08,3.7l-1.12,2.36s4.38,2.69,6.4,2.47c0,0,5.83-.11,8.75-2.25,0,0,5.51-3.69,6.23-6.5" fill="none" stroke="#231f20" stroke-miterlimit="10" stroke-width="0.75"/><path d="M57.29,326.85s1.36-2.69,3.26-3.2c0,0,7.87-.76,11.71-5.95" fill="none" stroke="#231f20" stroke-miterlimit="10" stroke-width="0.75"/><path d="M52.17,324.52a23.3,23.3,0,0,0,5.67-2.25s3.72-3.79,5.62-4.57c0,0,6.2-3.39,8.57-3.59" fill="none" stroke="#231f20" stroke-miterlimit="10" stroke-width="0.75"/><path d="M50.18,323.39s2.35-4,3.65-4.07a6,6,0,0,0,4.21-.8s3.62-3.71,5.32-3.86l3.91-2.26" fill="none" stroke="#231f20" stroke-miterlimit="10" stroke-width="0.75"/><path d="M64.41,296.71c-3.66,2.56-2.31,6.88-2.31,6.88,1.54,3.13,9.9,8.12,9.9,8.12" fill="none" stroke="#231f20" stroke-miterlimit="10" stroke-width="0.75"/><path d="M71.08,311.71s.21,3-10.53-2c0,0-5.83-3-7.13-8.74,0,0,.11-5.52,3.42-9.33a64.32,64.32,0,0,1,6.62-5.92" fill="none" stroke="#231f20" stroke-miterlimit="10" stroke-width="0.75"/><path d="M67.27,308.57s-4.2,2.33-9-2.64c0,0-.51-4.26,1.3-7.37,0,0,2.51-3.55,4.41-4.84" fill="none" stroke="#231f20" stroke-miterlimit="10" stroke-width="0.75"/><path d="M72,305.93s-4.58-2.55-4.68-9.22" fill="none" stroke="#231f20" stroke-miterlimit="10" stroke-width="0.75"/><path d="M77.82,278.19s-3-15.18-2.64-19.56c0,0-2.06-11.74-2.92-13.23l-13.53-3.28" fill="none" stroke="#231f20" stroke-miterlimit="10" stroke-width="0.75"/><path d="M60.06,238.24l15,4.28a90.69,90.69,0,0,1,1.69,9s1.1,9.35,2.19,10.54l1.64,15.56" fill="none" stroke="#231f20" stroke-miterlimit="10" stroke-width="0.75"/><polyline points="90.22 276.07 84.04 251.77 87.13 246.99 113.81 239.23" fill="none" stroke="#231f20" stroke-miterlimit="10" stroke-width="0.75"/><path d="M115.87,243.75c-7.46.21-31.83,9.1-31.83,9.1" fill="none" stroke="#231f20" stroke-miterlimit="10" stroke-width="0.75"/><path d="M86.66,232.37c-2,4-8.84,5.87-8.84,5.87-6.85.91-4.91,3.66-4.91,3.66" fill="none" stroke="#231f20" stroke-miterlimit="10" stroke-width="0.75"/><path d="M91.08,232.37s-3.41,2.91-5.24,4.71a5.91,5.91,0,0,0-1.12,1.29,6.92,6.92,0,0,0-.19,3.75,5.1,5.1,0,0,0,5.23,2.34s3.17.5,3.86-4c0,0-.23-3.63-3-4a3.2,3.2,0,0,0-2.72-.3" fill="none" stroke="#231f20" stroke-miterlimit="10" stroke-width="0.75"/><path d="M86,241.9s-.8-3.14,2.12-3.66c0,0,3.34.06,3.28,3,0,0-2.58,3.15-4.09-.51" fill="none" stroke="#231f20" stroke-miterlimit="10" stroke-width="0.75"/><path d="M109.23,229.44s-18.61,4-21.91,2.93c0,0-.26.31-1-.67-.92-1.21-2.57-4.36-5.34-12.39,0,0,.25-24.49-.9-31.58,0,0-1.57-18.72-1.9-22.76l-1.4-19.87-8.25-11.63.58-15.17,15.17,18.8s-1.4,9.73.17,17.07c0,0,3.38,23.25,3.63,28.86,0,0-.17,27.21-.5,29.6l-.91,18" fill="none" stroke="#231f20" stroke-miterlimit="10" stroke-width="0.75"/><path d="M81,219.31l-9.59,4s-3.19-16.37-3.11-28.2c0,0-1.44-22.13-1.13-28,0,0-.51-21.12-.71-22.13,0,0-6.37-12.43-7.48-12.73a1.43,1.43,0,0,1,1.11-.61s5,1.11,5.86,1.22l2.6-.21" fill="none" stroke="#231f20" stroke-miterlimit="10" stroke-width="0.75"/><path d="M71.38,223.28a148.12,148.12,0,0,1-10-14.35s-1.53-38.6-1.32-40.93L59,138.49v-6.26" fill="none" stroke="#231f20" stroke-miterlimit="10" stroke-width="0.75"/><path d="M73.88,222.24S70,189.22,70,186.09c0,0-.2-18.69,0-23.24a35.81,35.81,0,0,0-.9-6.37,4.73,4.73,0,0,1,3.13-.6l5.37.39" fill="none" stroke="#231f20" stroke-miterlimit="10" stroke-width="0.75"/><path d="M75.46,221.59s-.54-19.33-.95-22.36c0,0-.6-9.1-.6-13,0,0-.39-8.28-.6-13.64,0,0,.09-8,.5-10.51l-.5-6.08" fill="none" stroke="#231f20" stroke-miterlimit="10" stroke-width="0.75"/><path d="M77.82,215.84S78,198,77.56,195L76.4,182.87a45.88,45.88,0,0,1-.62-9l-.32-8.66v-4.52l-.38-4.56" fill="none" stroke="#231f20" stroke-miterlimit="10" stroke-width="0.75"/><path d="M171.43,258s-10.25-3.14-13.06-6.92" fill="none" stroke="#231f20" stroke-miterlimit="10" stroke-width="0.75"/><path d="M164.9,256s-8,4.66-13.32-7.85" fill="none" stroke="#231f20" stroke-miterlimit="10" stroke-width="0.75"/><path d="M159.89,257.65s-1.43,4.17-7.53.31c0,0-3.93-4.3-4.66-8.08a3.69,3.69,0,0,1,1-3.79" fill="none" stroke="#231f20" stroke-miterlimit="10" stroke-width="0.75"/><path d="M174.31,246.8s-10.53,7.37-18.07,3.33c0,0-7.5-2.42-8.71-6.27,0,0-2.11-3.64-2.71-11.72v-6.47L144,221s.3-2.93,1.46-3.74c0,0,6.93-5.26,8.24-5.77a10.92,10.92,0,0,1,1-3.84s1.49-3.43,4.44-3.94c0,0,3.75-1.62,5.17,1.92,0,0-1,9.2-2.23,11.73,0,0-1.41,5.46-4.85,5.46a5.1,5.1,0,0,1-3-3.84s-1.52-7.49-.51-9.41" fill="none" stroke="#231f20" stroke-miterlimit="10" stroke-width="0.75"/><path d="M154.28,249.37s8.09-3.08,9.5-5.61c0,0,4.69-9.52,5.29-12l4.59-11.31" fill="none" stroke="#231f20" stroke-miterlimit="10" stroke-width="0.75"/><path d="M156,226.07s-4,9.58-3.95,13.45c0,0,.6,2.68,4.47,1,0,0,4.49-4.09,5.11-4.76,0,0,4.94-3.87,5.9-5.51a3.78,3.78,0,0,0-2.08-3.87s-4.24-2.9-4.95-5.54" fill="none" stroke="#231f20" stroke-miterlimit="10" stroke-width="0.75"/><path d="M161.6,219.28s4.79-1.05,7.54-.6c0,0,2.28-1.19,2.29-9.3,0,0-.28-10.35-2.07-11.76,0,0-.9-.45-1.83,1.41L164,204.17" fill="none" stroke="#231f20" stroke-miterlimit="10" stroke-width="0.75"/><path d="M154,208.42s-2.38-1.65-4-1a17.92,17.92,0,0,0-1,6l.25,2.34s-.33,9.31-1,12c0,0-.78,2.61,1,2.67a10.79,10.79,0,0,0,3.58-4.56s3.94-4,3.79-3.36a91.16,91.16,0,0,0-1.89,19.59c1.78,2.08,6.82,3.64,6.82,3.64a59.27,59.27,0,0,0,9.33-.59l3.38-1.49" fill="none" stroke="#231f20" stroke-miterlimit="10" stroke-width="0.75"/><path d="M164,211.83s8.74-3.87,9.34-3.79l.35.74" fill="none" stroke="#231f20" stroke-miterlimit="10" stroke-width="0.75"/><path d="M164,209s5.77-.82,8.59-2.68c0,0,.38-.52,1.42,0" fill="none" stroke="#231f20" stroke-miterlimit="10" stroke-width="0.75"/><path d="M156.12,205.56,152.69,202a11,11,0,0,1,2.91-5.51s4.39-5.28,5.35-5.88c0,0,4.62-.37,5.81,0L163,203.36" fill="none" stroke="#231f20" stroke-miterlimit="10" stroke-width="0.75"/><path d="M158.37,223.07s-2.33,15.26-2.11,16.38v2.15a10,10,0,0,0,3.82,2.61l3,.45" fill="none" stroke="#231f20" stroke-miterlimit="10" stroke-width="0.75"/><path d="M159.16,203.73s-1.1-13.26-.92-16.75a7,7,0,0,1,2.12-4.39L164,180.2a13.56,13.56,0,0,1,7,1.19l3.38,3.65" fill="none" stroke="#231f20" stroke-miterlimit="10" stroke-width="0.75"/><path d="M161.6,203.36s-1.39-10.88-.94-14.82a9.49,9.49,0,0,1,.42-3.95l2.4-3.2" fill="none" stroke="#231f20" stroke-miterlimit="10" stroke-width="0.75"/><path d="M165.61,240s6.94-.66,8.7-1.48" fill="none" stroke="#231f20" stroke-miterlimit="10" stroke-width="0.75"/><path d="M168.82,232.59a35.43,35.43,0,0,0,5.49,0" fill="none" stroke="#231f20" stroke-miterlimit="10" stroke-width="0.75"/><line x1="171.43" y1="225.96" x2="174.31" y2="225.96" fill="none" stroke="#231f20" stroke-miterlimit="10" stroke-width="0.75"/><path d="M145.47,217.28s3.5-13.33,4.69-15.94l3.55-10.49s4.24-6.63,5.45-7.45c0,0-4.54-5.89-2.34-9.47a20.3,20.3,0,0,1,6.66-2.75s7.25-1.3,10.83-1.59" fill="none" stroke="#231f20" stroke-miterlimit="10" stroke-width="0.75"/><path d="M166.52,179.76a32.59,32.59,0,0,1,7.46,0" fill="none" stroke="#231f20" stroke-miterlimit="10" stroke-width="0.75"/><path d="M155.9,187.55a13.77,13.77,0,0,1-.88-14.63s4.71-4,9.88-4.2l9.41-.87" fill="none" stroke="#231f20" stroke-miterlimit="10" stroke-width="0.75"/><path d="M160.36,182.59s-1-5.24,1.67-7.17c0,0,2.39-2.5,4-3.08l4.23-1.16" fill="none" stroke="#231f20" stroke-miterlimit="10" stroke-width="0.75"/><path d="M148.15,252.85,133,256.14s5.5-4.43,2-19c0,0-8.82-29.66-11-33.41l-10.23-13.88,2.06-3.89s5.71-2.83,9.77-3.37l16-1.2,8.61-.51,3,2.46" fill="none" stroke="#231f20" stroke-miterlimit="10" stroke-width="0.75"/><path d="M111.8,223.28s2.81,9.53,8,11.64c0,0,1.54,1.05,1.54-2.55,0,0-4.93-11.74-7-13.09,0,0-.87-1.4-3.48,0Z" fill="none" stroke="#231f20" stroke-miterlimit="10" stroke-width="0.75"/><path d="M119.76,234.92l7.9,12.47a54.54,54.54,0,0,0,3.1-5.59,4.73,4.73,0,0,0,.23-.71" fill="none" stroke="#231f20" stroke-miterlimit="10" stroke-width="0.75"/><path d="M131,238.24s.15-8.59-.72-10c0,0-9.45-1.73-10.51-1.67l5.62-7.25s-7.56-15-10.45-15.92" fill="none" stroke="#231f20" stroke-miterlimit="10" stroke-width="0.75"/><path d="M111.8,217.28l-5-9.24s-2-1.83-3.29,10.47l7.32,3.08" fill="none" stroke="#231f20" stroke-miterlimit="10" stroke-width="0.75"/><path d="M107.57,223.86s2,5.76,4.74,9.19c0,0,.16,5.24,2.62,8.77l3,2.79" fill="none" stroke="#231f20" stroke-miterlimit="10" stroke-width="0.75"/><path d="M117,234.23s2,10.84,3.77,15.14c0,0,5.21,4.09,10.71,3.48L131,251s-6.51-1.69-8-3.65c0,0-3.22-7.26-1.79-10.25" fill="none" stroke="#231f20" stroke-miterlimit="10" stroke-width="0.75"/><polyline points="127.66 253.53 130.99 257.22 133.28 254.5 131.43 252.85" fill="none" stroke="#231f20" stroke-miterlimit="10" stroke-width="0.75"/><polyline points="121.3 232.37 130.76 241.8 135.7 240.37" fill="none" stroke="#231f20" stroke-miterlimit="10" stroke-width="0.75"/><polyline points="135.04 237.13 131 239.96 122.96 229.44 119.76 228.06" fill="none" stroke="#231f20" stroke-miterlimit="10" stroke-width="0.75"/><path d="M118,224.51s0-9.95-4.16-17.23l-2-4.42s1-.59,4.07-.39l7.53.38" fill="none" stroke="#231f20" stroke-miterlimit="10" stroke-width="0.75"/><path d="M112.77,218.51s-.91-9.84-1.9-13.87c0,0-1.77-2.46,0-4.53,0,0,1.14-1.18,6.08-.89l3.74,0" fill="none" stroke="#231f20" stroke-miterlimit="10" stroke-width="0.75"/><path d="M106.91,207.28s1-6.66,2.32-9.51c0,0,1.17-6.42,5.41-6.78" fill="none" stroke="#231f20" stroke-miterlimit="10" stroke-width="0.75"/><path d="M105.62,207.94s-1.46-7.32,0-11c0,0,1.81-4,2.84-4.73" fill="none" stroke="#231f20" stroke-miterlimit="10" stroke-width="0.75"/><path d="M106.91,203.36s-.35-6.53,2.32-11.18c0,0,3.2-5.8,6.64-6.22" fill="none" stroke="#231f20" stroke-miterlimit="10" stroke-width="0.75"/><path d="M112.31,225.76a41.8,41.8,0,0,1-7-4.17,1.77,1.77,0,0,1-1-2.74" fill="none" stroke="#231f20" stroke-miterlimit="10" stroke-width="0.75"/><path d="M138.94,254.5s2.31-15.63-1-23l-6-16.74-4.51-11L122,193.43l-5.06-8" fill="none" stroke="#231f20" stroke-miterlimit="10" stroke-width="0.75"/><path d="M142.53,254.07s.6-12.78-.84-17.73a70.35,70.35,0,0,1-1.43-11.21S136.75,213,135,209.94c0,0-6.53-14.49-7.64-15.81l-6.71-10.21" fill="none" stroke="#231f20" stroke-miterlimit="10" stroke-width="0.75"/><path d="M143.31,222.31s-1.92-10.48-3.58-13.89l-6.45-12.09-5.62-8.78-2.28-2.09" fill="none" stroke="#231f20" stroke-miterlimit="10" stroke-width="0.75"/><path d="M145.47,214.25s-1.42-8.81-2.82-10.89l-5-8.7-3.28-5.91-3.87-4.83" fill="none" stroke="#231f20" stroke-miterlimit="10" stroke-width="0.75"/><path d="M148.72,203.73S145.45,193,144,191.94c0,0-5.8-8.25-6-8.8" fill="none" stroke="#231f20" stroke-miterlimit="10" stroke-width="0.75"/><line x1="152.69" y1="190.99" x2="148.15" y2="182.59" fill="none" stroke="#231f20" stroke-miterlimit="10" stroke-width="0.75"/><path d="M105.62,196.91s2.6-50.39,2.54-54.26" fill="none" stroke="#231f20" stroke-miterlimit="10" stroke-width="0.75"/><polyline points="111.8 187.55 114.64 162.3 107.67 162.3" fill="none" stroke="#231f20" stroke-miterlimit="10" stroke-width="0.75"/><line x1="125.64" y1="182.59" x2="127.66" y2="157.62" fill="none" stroke="#231f20" stroke-miterlimit="10" stroke-width="0.75"/><path d="M143.35,181.3a86.78,86.78,0,0,0,3.26-26.76" fill="none" stroke="#231f20" stroke-miterlimit="10" stroke-width="0.75"/><line x1="163.04" y1="168.93" x2="162.03" y2="152.14" fill="none" stroke="#231f20" stroke-miterlimit="10" stroke-width="0.75"/><path d="M135,156.15s-.87,11.24,0,11.7c0,0,9-1.67,10.43-1.67" fill="none" stroke="#231f20" stroke-miterlimit="10" stroke-width="0.75"/><path d="M138,167.32s1-9.7.62-11.17" fill="none" stroke="#231f20" stroke-miterlimit="10" stroke-width="0.75"/><path d="M141.69,166.68s.24-8-.56-10.53" fill="none" stroke="#231f20" stroke-miterlimit="10" stroke-width="0.75"/><line x1="99.81" y1="177.29" x2="93.62" y2="169.59" fill="none" stroke="#231f20" stroke-miterlimit="10" stroke-width="0.75"/><line x1="101.95" y1="176.34" x2="93.62" y2="164.92" fill="none" stroke="#231f20" stroke-miterlimit="10" stroke-width="0.75"/><line x1="104.01" y1="176.34" x2="93.62" y2="159.63" fill="none" stroke="#231f20" stroke-miterlimit="10" stroke-width="0.75"/><line x1="105.62" y1="174.93" x2="93.62" y2="153.74" fill="none" stroke="#231f20" stroke-miterlimit="10" stroke-width="0.75"/><line x1="106.63" y1="171.18" x2="93.62" y2="149.2" fill="none" stroke="#231f20" stroke-miterlimit="10" stroke-width="0.75"/><line x1="106.9" y1="167.32" x2="95.27" y2="147.86" fill="none" stroke="#231f20" stroke-miterlimit="10" stroke-width="0.75"/><line x1="106.72" y1="163.5" x2="96.72" y2="146.12" fill="none" stroke="#231f20" stroke-miterlimit="10" stroke-width="0.75"/><line x1="106.91" y1="158.82" x2="97.79" y2="144.92" fill="none" stroke="#231f20" stroke-miterlimit="10" stroke-width="0.75"/><line x1="107.57" y1="154.54" x2="98.92" y2="143.31" fill="none" stroke="#231f20" stroke-miterlimit="10" stroke-width="0.75"/><line x1="106.9" y1="150.67" x2="102.35" y2="144.38" fill="none" stroke="#231f20" stroke-miterlimit="10" stroke-width="0.75"/><line x1="107.57" y1="147.53" x2="104.97" y2="144.38" fill="none" stroke="#231f20" stroke-miterlimit="10" stroke-width="0.75"/><path d="M106.63,176.88,93,177.7V152.14l-1.34-.7-4.28-2.24S83.9,132.35,84,130.08h2.62L91.44,150" fill="none" stroke="#231f20" stroke-miterlimit="10" stroke-width="0.75"/><path d="M91.66,151.44l10.69-12.67a21.7,21.7,0,0,0,0-6.54l-7-37.58" fill="none" stroke="#231f20" stroke-miterlimit="10" stroke-width="0.75"/><polyline points="86.66 130.08 91.67 125.4 90.72 118.3 84.03 123.04 80.97 105.48 91.67 94.65" fill="none" stroke="#231f20" stroke-miterlimit="10" stroke-width="0.75"/><line x1="88.99" y1="127.14" x2="87.17" y2="120.82" fill="none" stroke="#231f20" stroke-miterlimit="10" stroke-width="0.75"/><path d="M98.92,143.31s4.33,1.34,12.24-2l4.23-1.2" fill="none" stroke="#231f20" stroke-miterlimit="10" stroke-width="0.75"/><path d="M108.46,130.08s-5.58-28.21-6.11-29.82" fill="none" stroke="#231f20" stroke-miterlimit="10" stroke-width="0.75"/><path d="M112.77,125.67s-4.56-18.72-5.62-24.2" fill="none" stroke="#231f20" stroke-miterlimit="10" stroke-width="0.75"/><path d="M116.08,125.67s-4.38-21-3.77-23.67" fill="none" stroke="#231f20" stroke-miterlimit="10" stroke-width="0.75"/><path d="M133.55,102v2.27c-.49,2.14,2.1,12.57,2.1,12.57-3.75,2.54-10.83,2.54-10.83,2.54l-3.52-15.11v-4" fill="none" stroke="#231f20" stroke-miterlimit="10" stroke-width="0.75"/><path d="M174,149.2s-37.85,6.62-49.79,8.39c0,0-12.43-13.61-8.11-29.38a92.5,92.5,0,0,1,31.45-10.43L174,111.09" fill="none" stroke="#231f20" stroke-miterlimit="10" stroke-width="0.75"/><path d="M173.66,146l-26.13,5.49s-8.66-18.15-7.46-21.36c0,0,1-2.54,8.65-4.41,0,0,12.17-4,14.32-4.85L174,118.3" fill="none" stroke="#231f20" stroke-miterlimit="10" stroke-width="0.75"/><line x1="142.65" y1="154.54" x2="139.73" y2="144.92" fill="none" stroke="#231f20" stroke-miterlimit="10" stroke-width="0.75"/><polyline points="144.01 143.58 135.65 146.12 129.09 123.04" fill="none" stroke="#231f20" stroke-miterlimit="10" stroke-width="0.75"/><line x1="141.19" y1="128.83" x2="138.68" y2="119.42" fill="none" stroke="#231f20" stroke-miterlimit="10" stroke-width="0.75"/><path d="M115.39,131.71s7.25-2.18,8-2.88l1-4.63" fill="none" stroke="#231f20" stroke-miterlimit="10" stroke-width="0.75"/><polyline points="122.96 156.09 131.67 153.74 130.47 148.93 119.46 150.67" fill="none" stroke="#231f20" stroke-miterlimit="10" stroke-width="0.75"/><path d="M118.4,148.57s8.84-2.54,10.7-2.62l-3.46-10.15-10.25,2.07" fill="none" stroke="#231f20" stroke-miterlimit="10" stroke-width="0.75"/><path d="M122.24,144.38s-4.49-.75-.94-4.27a3,3,0,0,1,3.06.6s1.77,2.18-.55,3.67Z" fill="none" stroke="#231f20" stroke-miterlimit="10" stroke-width="0.75"/><path d="M79.71,115.17s-5.6-.37-6.4-9.85c0,0-2.88-11.2-6.33-11.37,0,0-7.92-1.12-10.16-.91,0,0-1.9,1.08,0,2.46,0,0,6.18,2.93,8.35,2.93,0,0,3.17,2.93,3.35,6.72,0,0,1.74,8.79,2.86,9.31,0,0,.24,2.11-6.21.71,0,0-2.52.31-7-4.08l-5.67-5.77a4.83,4.83,0,0,0-5.18,1.21s-1.2,3.78,2.59,4.56c0,0,.69-1.55,4.31.74,0,0,4.48,5.56,6.2,5.73,0,0-.76,1.82,8.67.74l4.21.34h6.4" fill="none" stroke="#231f20" stroke-miterlimit="10" stroke-width="0.75"/><path d="M77.56,105.21s-5.4-1.24-6.18-10.56c0,0,2.49-6.74,3.7-7.43" fill="none" stroke="#231f20" stroke-miterlimit="10" stroke-width="0.75"/><path d="M68.52,94.73s-.67-4.06,3.64-7.51" fill="none" stroke="#231f20" stroke-miterlimit="10" stroke-width="0.75"/><path d="M111.16,55.85c-6.5.35-25.9-1.55-25.9-1.55L33.37,51.2c-.69,2.24,1,29,1,29l44.47,7.06" fill="none" stroke="#231f20" stroke-miterlimit="10" stroke-width="0.75"/><polyline points="33.37 51.2 39.23 49.65 68.52 50.42 91.67 51.2 101.08 51.89 107.57 51.89" fill="none" stroke="#231f20" stroke-miterlimit="10" stroke-width="0.75"/><path d="M172,105.83l-3.45,1.39-35-5.22-17.47-3.06L98.92,96.22,88.32,93l-7.53,6c-3.91,3.88-3.23,6.15-3.23,6.15C81.37,118.71,81,123,81,123H84" fill="none" stroke="#231f20" stroke-miterlimit="10" stroke-width="0.75"/><polyline points="88.32 93.04 79.71 90.97 78.88 80.5 87.17 77.05" fill="none" stroke="#231f20" stroke-miterlimit="10" stroke-width="0.75"/><path d="M78.88,80.5s13.88,3.1,20,3.1L122.24,86,133,87.22l10.31.87,8.48,1.72L161.1,91h10" fill="none" stroke="#231f20" stroke-miterlimit="10" stroke-width="0.75"/><line x1="168.51" y1="107.22" x2="168.51" y2="91.71" fill="none" stroke="#231f20" stroke-miterlimit="10" stroke-width="0.75"/><path d="M82.64,89.25s26,7.12,30.13,7c0,0,18.86,4.37,23.78,4,0,0,20.79,2.93,23.62,2.93l8.34-1.19" fill="none" stroke="#231f20" stroke-miterlimit="10" stroke-width="0.75"/><path d="M81,87.22,103.25,91S116.7,93,118.56,93c0,0,15.07,3.18,19.77,3.18,0,0,13,2.17,15,2.17,0,0,7.93,1.22,9.75,1.07h3.22" fill="none" stroke="#231f20" stroke-miterlimit="10" stroke-width="0.75"/><path d="M81,83.06s11.76,3.1,15.54,3.25l17.66,2.94,8.3,1.72,12.19,2,9.92.33,8,1.3,7.54.08h6.35" fill="none" stroke="#231f20" stroke-miterlimit="10" stroke-width="0.75"/><path d="M98.81,85.05s9.56,1.07,14,2.17c0,0,8.47,1.62,10.85,1.67,0,0,7.64-.2,10.12,0,0,0,6.83,1.64,9.61,2.08,0,0,6.58,1.54,9.94,1.54,0,0,9.61.55,10.51.51l2.72,0" fill="none" stroke="#231f20" stroke-miterlimit="10" stroke-width="0.75"/><path d="M37.33,49.65s1-6.55,6.66-7.73c0,0,10.56-2.54,18-2.54,0,0,17.44,1.37,19,1.37,0,0,15.29.59,20.75-.2" fill="none" stroke="#231f20" stroke-miterlimit="10" stroke-width="0.75"/><path d="M43.2,49.75A11.05,11.05,0,0,1,52,44.51s7.2-2.19,11.42-2.19c0,0,8.68.78,12,.78,0,0,10,1.66,14.3,1.41" fill="none" stroke="#231f20" stroke-miterlimit="10" stroke-width="0.75"/><path d="M50.64,50S56.9,46,62.37,46H77.86s12.57-.19,15.76,0c0,0,8.21.22,10.39-.08" fill="none" stroke="#231f20" stroke-miterlimit="10" stroke-width="0.75"/><path d="M117,58.55s-1.4,7.63,2.92,10.66c0,0,8.14,11.72,18.46,11.29,0,0,13,1.33,19.89,1.14,0,0,11.55-2.74,15.76-6.46" fill="none" stroke="#231f20" stroke-miterlimit="10" stroke-width="0.75"/><path d="M174,73.22l-2,1.37c2,.39-8.16,3.72-8.16,3.72a128,128,0,0,1-13.38,0c-5.46,0-15.76-2.74-15.76-2.74-5.77-1.17-12.19-7.82-12.19-7.82a13.19,13.19,0,0,1-1.78-11" fill="none" stroke="#231f20" stroke-miterlimit="10" stroke-width="0.75"/><line x1="172.9" y1="87.22" x2="158.22" y2="81.64" fill="none" stroke="#231f20" stroke-miterlimit="10" stroke-width="0.75"/><line x1="132.67" y1="80.02" x2="125.57" y2="79.17" fill="none" stroke="#231f20" stroke-miterlimit="10" stroke-width="0.75"/><path d="M40.57,74.4S47.65,75,49,75V72.44H40.57Z" fill="none" stroke="#231f20" stroke-miterlimit="10" stroke-width="0.75"/><polygon points="40.57 68.29 49 69.21 49.49 66.21 40.57 65.6 40.57 68.29" fill="none" stroke="#231f20" stroke-miterlimit="10" stroke-width="0.75"/><polygon points="39.96 62.55 50.1 62.55 49.49 59.86 40.57 59.86 39.96 62.55" fill="none" stroke="#231f20" stroke-miterlimit="10" stroke-width="0.75"/><rect x="54.5" y="73.73" width="8.43" height="2.14" fill="none" stroke="#231f20" stroke-miterlimit="10" stroke-width="0.75"/><rect x="54.01" y="66.21" width="9.42" height="3" fill="none" stroke="#231f20" stroke-miterlimit="10" stroke-width="0.75"/><rect x="54.5" y="60.35" width="9.53" height="2.2" fill="none" stroke="#231f20" stroke-miterlimit="10" stroke-width="0.75"/><path d="M69.52,63.28h7.81V60.35H68.52s-1.08,2.93,0,2.93Z" fill="none" stroke="#231f20" stroke-miterlimit="10" stroke-width="0.75"/><rect x="68.48" y="67.41" width="7.89" height="2.84" fill="none" stroke="#231f20" stroke-miterlimit="10" stroke-width="0.75"/><polygon points="68.03 77.7 76.37 78.43 76.37 74.8 68.48 74.8 68.03 77.7" fill="none" stroke="#231f20" stroke-miterlimit="10" stroke-width="0.75"/><rect x="89.76" y="70.1" width="3.11" height="2.95" fill="none" stroke="#231f20" stroke-miterlimit="10" stroke-width="0.75"/><polygon points="89.76 66.21 93.97 66.21 93.97 63.28 90.55 63.28 89.76 66.21" fill="none" stroke="#231f20" stroke-miterlimit="10" stroke-width="0.75"/><polygon points="97.12 66.21 101.18 66.21 100.69 63.28 97.76 63.28 97.12 66.21" fill="none" stroke="#231f20" stroke-miterlimit="10" stroke-width="0.75"/><rect x="96.51" y="70.61" width="4.67" height="3.12" fill="none" stroke="#231f20" stroke-miterlimit="10" stroke-width="0.75"/><polygon points="106.9 74.8 111.16 74.8 111.16 71.58 107.57 71.58 106.9 74.8" fill="none" stroke="#231f20" stroke-miterlimit="10" stroke-width="0.75"/><rect x="106.27" y="64.01" width="3.69" height="2.69" fill="none" stroke="#231f20" stroke-miterlimit="10" stroke-width="0.75"/><polyline points="117.8 67.71 114.17 67.71 113.4 64.75 116.08 64.75" fill="none" stroke="#231f20" stroke-miterlimit="10" stroke-width="0.75"/><polygon points="116.08 74.8 119.02 74.8 119.02 72.17 115.17 72.17 114.62 74.8 116.08 74.8" fill="none" stroke="#231f20" stroke-miterlimit="10" stroke-width="0.75"/><path d="M174,62.55s-18-2.13-21.88-2.2c0,0-9.47-1.47-15.55-1.8" fill="none" stroke="#231f20" stroke-miterlimit="10" stroke-width="0.75"/><path d="M174.31,53.38l-22.39,3.41H140s-9.85,2.51-12.83,3.56l20,2.2L159.19,64A41.89,41.89,0,0,0,172,62.55" fill="none" stroke="#231f20" stroke-miterlimit="10" stroke-width="0.75"/><path d="M106.27,0l.63,3.68L109,9.56l2.13,6.77,2.24,6.44,4.4,12.54,2.4,9.2L121.49,47l2.26,4.25c.27,2.11,1.82,9.35,1.82,9.35l-3.45,2s-.57-8-1.92-9.17L115.92,48l1.88-1L119,46l1.18-.1" fill="none" stroke="#231f20" stroke-miterlimit="10" stroke-width="0.75"/><path d="M120.72,55.66s-1.47,3.36-7,2.52c0,0-6-4.21-7.44-8.91,0,0-2-1.75-5.68-11.85,0,0-3.37-10.8-5.75-15.15,0,0-3.86-8.07-4.35-11,0,0-3.3-7.63-2.88-11.25" fill="none" stroke="#231f20" stroke-miterlimit="10" stroke-width="0.75"/><path d="M118.48,51.89s-2.18,1.93-4.77-.69c0,0-6.67-5.57-7.16-7.82,0,0-5.07-10.59-5.37-13.26,0,0-1.77-8.34-2.34-9.89l-3.16-9-2.1-5.61A36.73,36.73,0,0,1,91.87,0" fill="none" stroke="#231f20" stroke-miterlimit="10" stroke-width="0.75"/><path d="M56.12,0s-1.41,3.4-1,10.41a28.91,28.91,0,0,1,2.1,7.3s.7,9.54,3.3,12.69c0,0,2.87-.87,4.42-1.24a27.56,27.56,0,0,0,5.51-1,27.71,27.71,0,0,1,4.87-.63l8.42,2.87L90.35,32l4.21,1a19,19,0,0,0,4.59,1" fill="none" stroke="#231f20" stroke-miterlimit="10" stroke-width="0.75"/><path d="M61.31,31l3,.3s2.46-.44,4.56-.94c0,0,3.86-.77,4.77-.77h2.72a14.17,14.17,0,0,0,3.74.86,27.6,27.6,0,0,1,5.4,1.46L91.87,34l3.81,1.18,4.14,1.13" fill="none" stroke="#231f20" stroke-miterlimit="10" stroke-width="0.75"/><polygon points="64.03 23.11 68.03 22.06 67.06 19.74 64.03 19.74 63.62 21.43 64.03 23.11" fill="none" stroke="#231f20" stroke-miterlimit="10" stroke-width="0.75"/><polygon points="62.99 15.18 66.92 14.06 66.48 11.46 62.99 12.03 62.15 13.32 62.99 15.18" fill="none" stroke="#231f20" stroke-miterlimit="10" stroke-width="0.75"/><polygon points="61.31 6.55 64.96 5.43 64.53 3.26 61.31 3.26 60.54 4.91 61.31 6.55" fill="none" stroke="#231f20" stroke-miterlimit="10" stroke-width="0.75"/><polygon points="71.9 22.27 75.69 21.07 75.69 18.97 71.9 18.97 71.9 22.27" fill="none" stroke="#231f20" stroke-miterlimit="10" stroke-width="0.75"/><polygon points="71.13 13.64 75.13 12.73 74.57 10.2 70.47 10.55 70.47 11.92 71.13 13.64" fill="none" stroke="#231f20" stroke-miterlimit="10" stroke-width="0.75"/><polygon points="69.53 4.31 73.8 3.54 72.8 1.08 68.6 1.08 69.53 4.31" fill="none" stroke="#231f20" stroke-miterlimit="10" stroke-width="0.75"/><polygon points="79.06 13.32 82.14 12.59 81.65 9.92 77.33 10.2 78.21 13.64 79.06 13.32" fill="none" stroke="#231f20" stroke-miterlimit="10" stroke-width="0.75"/><polygon points="80.11 21.85 84.04 21.43 84.04 18.55 79.73 18.55 80.11 21.85" fill="none" stroke="#231f20" stroke-miterlimit="10" stroke-width="0.75"/><polygon points="77.1 3.82 81.3 3.26 81.3 0.8 77.1 0.45 77.1 3.82" fill="none" stroke="#231f20" stroke-miterlimit="10" stroke-width="0.75"/><line x1="89.23" y1="23.11" x2="91.26" y2="23.11" fill="none" stroke="#231f20" stroke-miterlimit="10" stroke-width="0.75"/><line x1="86" y1="11.18" x2="87.58" y2="11.18" fill="none" stroke="#231f20" stroke-miterlimit="10" stroke-width="0.75"/><polyline points="109.96 0 128.47 51.2 125.56 60.55" fill="none" stroke="#231f20" stroke-miterlimit="10" stroke-width="0.75"/><path d="M128.47,51.2s44.19-5.63,45.84-5.25" fill="none" stroke="#231f20" stroke-miterlimit="10" stroke-width="0.75"/><path d="M145.36,0s-2,7.58,3.13,13.64c0,0,4.41,4.2,12.24,1.93,0,0,5.7-2.65,7-7.45a10.81,10.81,0,0,0,0-8.12" fill="none" stroke="#231f20" stroke-miterlimit="10" stroke-width="0.75"/><path d="M168.47,5.62s4.22,2.13,5.51,2.5" fill="none" stroke="#231f20" stroke-miterlimit="10" stroke-width="0.75"/><line x1="144.58" y1="1.18" x2="137.77" fill="none" stroke="#231f20" stroke-miterlimit="10" stroke-width="0.75"/><path d="M122.37,0s4.8,22.64,6.75,24.09c0,0,4.57-4.48,5.76-5L137.77,17" fill="none" stroke="#231f20" stroke-miterlimit="10" stroke-width="0.75"/><path d="M130.07,50.77s6.18-13.79,6.48-15.1c0,0,3.46-10.91,4.12-12.56,0,0,.92-4.42,3-5.08l7.69-2.69s-1.17,11.51-4.3,13.35c0,0-5.94,4.53-5.92,5.3a43.79,43.79,0,0,0,8.05,2.31,87,87,0,0,0,12,1.34s8.27-1.18,9.33-2L174,32.93" fill="none" stroke="#231f20" stroke-miterlimit="10" stroke-width="0.75"/><polyline points="127.69 49.03 132.66 36.3 135.65 26.29 137.77 18.16 139.35 14.74 147.09 12.04" fill="none" stroke="#231f20" stroke-miterlimit="10" stroke-width="0.75"/><line x1="164.17" y1="13.29" x2="173.98" y2="24.09" fill="none" stroke="#231f20" stroke-miterlimit="10" stroke-width="0.75"/><line x1="167.09" y1="9.72" x2="173.98" y2="19.87" fill="none" stroke="#231f20" stroke-miterlimit="10" stroke-width="0.75"/><line x1="167.71" y1="8.12" x2="173.98" y2="16.99" fill="none" stroke="#231f20" stroke-miterlimit="10" stroke-width="0.75"/><polyline points="131.88 50.77 138.68 42.31 154.49 40.41 164.17 39.38 170.53 38.04 173.98 38.04" fill="none" stroke="#231f20" stroke-miterlimit="10" stroke-width="0.75"/><line x1="138.68" y1="42.32" x2="135.85" y2="37.52" fill="none" stroke="#231f20" stroke-miterlimit="10" stroke-width="0.75"/><line x1="133.39" y1="33.85" x2="130.07" y2="24.09" fill="none" stroke="#231f20" stroke-miterlimit="10" stroke-width="0.75"/><line x1="124.77" y1="12.56" x2="119.53" y2="0.59" fill="none" stroke="#231f20" stroke-miterlimit="10" stroke-width="0.75"/><polygon points="126.33 67.71 129.12 68.08 129.12 65.84 126.33 65.84 126.33 67.71" fill="none" stroke="#231f20" stroke-miterlimit="10" stroke-width="0.75"/><polygon points="135.09 69.21 138.68 69.57 139.1 66.96 135.09 66.7 135.09 69.21" fill="none" stroke="#231f20" stroke-miterlimit="10" stroke-width="0.75"/><rect x="147.09" y="68.14" width="4.3" height="2.37" fill="none" stroke="#231f20" stroke-miterlimit="10" stroke-width="0.75"/><line x1="156.72" y1="76.56" x2="156.72" y2="69.32" fill="none" stroke="#231f20" stroke-miterlimit="10" stroke-width="0.75"/><line x1="160.35" y1="76" x2="160.35" y2="68.14" fill="none" stroke="#231f20" stroke-miterlimit="10" stroke-width="0.75"/><path d="M166.52,74.14s.1-3.52,0-4.93" fill="none" stroke="#231f20" stroke-miterlimit="10" stroke-width="0.75"/></svg>