<svg xmlns="http://www.w3.org/2000/svg" viewBox="0 0 596.17 232.62"><title>wasted06</title><path d="M568.28,219.5l1.19-8.21V199.6l1.19-6.14V180.58l-1.19-6.14-1.19-8.12-1-6.73-1.19-7.53V133.24l1.19-7.72,1.09-6.14,2.28-6.14,1.78-6.14,1.39-6.34V74.81l1.38-5.74,1-5.94,1.39-5.35,2-6.74,1.19-5.74V42.53s-2.18-5.55-4,0-1.19,3.56-1.19,3.56l-1,2.78s-1.78,2.77-2.18-.6V44.71l.2-2.58V40.06s-1.78-4.84-4,0l-.2,4-.4,3.37s-2.77,5.35-3.56-.2V39.56s-1.39-6.14-4-.8v7.53l-1,2.58s-3,3.56-4-1V39.36s-.59-5-3,0l-1.38,4.55v3s-.2,5.15-4.16,1.39l-1.59-3V40a1.9,1.9,0,0,0-2.18-2.57l-4.16,1.38L537,41.34l-1.39,3v7.13l1.19,2.77.79,2.78,1,4,.59,4.75v4.36l.4,4.56V79l-1,4.36-1.19,4.56-1.78,5.34v4.16l-1.19,4.76v14.26l1.39,4.36.59,3.17,1.19,4.1,1,4,.4,3.76.59,5-.2,4.16-.2,4-.59,4.36-1.39,6.34L536,165.73l-.6,4.75-1,4.36-1.19,4.56-1,6.73-1,6.34V197l-.79,4.36-1.19,5.75V219.5Z" fill="none" stroke="#231f20" stroke-miterlimit="10" stroke-width="1.5"/><line x1="547.8" y1="131.75" x2="546.77" y2="126.31" fill="none" stroke="#231f20" stroke-miterlimit="10" stroke-width="1.5"/><path d="M487.72,213.24s-4.79-2.1-6.89,0" fill="none" stroke="#231f20" stroke-miterlimit="10" stroke-width="1.5"/><path d="M505.27,219.5l.75-6.73,1.3-8.12,1.11-5.57v-6.32l.93-6.5v-37l-.93-7.43-.37-6.88-.74-6-.75-5.74-.37-4.46-.93-4.27a29.77,29.77,0,0,1-1.3-8.17c.19-3.35.75-6.69.75-6.69L506.66,93l2-6.31.74-4.27,1.49-4.83,1.67-5.76s1.11-2,.93-6.5L512.7,60V53.26s1.16-10,.77-12.63c0,0,0-4.27-1-5.57,0,0-3.07-3.47-3.77,1.52l.8,4.43v3l-.8,1.67s-3.48,2-3.48-1.12a6.54,6.54,0,0,1,.37-3.52s.56-3.91-.74-5.21c0,0-3.34-2-3.34,1.86v7.25s-1.86,3.15-3-.19a16.16,16.16,0,0,1,0-4.46l-.17-2.78s-2.06-4.78-3.73-.9L493.76,39v5.2s-2.23,3.9-3.53-.37V36.58s-1.67-4.43-3.72,0l-.93,1.82v2.79s.38,4.27-3.53.56a8.63,8.63,0,0,1-.74-5.17l-.07-1.89s-3.83-5.39-6.43.19l-1.11,4.45v3.9L475.18,47l.19,3.53-.75,4.64-.92,4.46s-.19-.37-.93,7.62v8.17L475,82.8l1.11,5.38.37,6.51v6.13l-.37,5s.93,11,1.86,12.07a32.48,32.48,0,0,1-1.3,8l-1.86,11.49-1.3,8.17-.74,5-1.3,6.68-1.3,6.87-1.67,8.18a44.79,44.79,0,0,0-1.3,9.66s-.75,8.54-1.31,10.21l-1.3,7.62s-.18,7.8,0,10l-.08,5,1.57,4.64Z" fill="none" stroke="#231f20" stroke-miterlimit="10" stroke-width="1.5"/><path d="M437.51,211.2a63.4,63.4,0,0,0,0-7.1l-1.26-8.22s-1-6.7-1-8.35l-.76-9.22-2-18-1.39-14.91-.76-10-1.39-11L427.78,116V105.61s.88-8.72.63-12.13c0,0,.89-8.22,1.65-11.26,0,0,2-6.06,2-10.11,0,0,1.64-8.85,1.39-12.9a64.48,64.48,0,0,1,0-8.84s1-7.72,1.64-8.35c0,0,1.52-2.53,1.77-8.09a10.13,10.13,0,0,0-.25-4.68s-2.66-4-5.18-.63c0,0,.12,3.54-.89,5.56l-1.64,3s-1.77,2-2.66-.51V33.3a13.7,13.7,0,0,0,.89-4s-.51-3-2.66-2c0,0-1.14-.4-1.14,4.4v2.53s-1.39,2.66-3-.5A43.8,43.8,0,0,1,421,29s-1.26-3-2.65,0v3.35s-.89,4.11-3.16,0V28s-1.39-2.53-2.66.12V33.3s-.25,3.16-2.65.25a9.07,9.07,0,0,1,0-3.67,1.47,1.47,0,0,0-1.9-1.77,3.66,3.66,0,0,0-.63,3,9.17,9.17,0,0,1-.89,3.67,10.23,10.23,0,0,0-.63,3.54,6.86,6.86,0,0,0-1.52,4.42V47.2s.13,3.17-1.26,4.56V63.39s-.13,7.08,0,7.46a51.78,51.78,0,0,1-.63,5.18l-.76,3.41-1.39,3.8s-.76.5-1.14,3.16c0,0-.12,2.9,0,5.18a15.62,15.62,0,0,0,.89,5.56l1.89,6.7a16.94,16.94,0,0,1,3,6.7l1,8.51,1.14,8.81.75,7.46.26,6.7v6.7l-.38,6.7-.38,6.32-.25,7.21-.13,7.08.13,6.83-.26,5.81v5.56l.26,3.92s.25,4.68.5,6.32l1.14,3.8s-2.66,5.31-1.77,10.62l32.25.61s.82-6.23-1.66-8.3c0,0-3.94-3.72-8.91-3.52" fill="none" stroke="#231f20" stroke-miterlimit="10" stroke-width="1.5"/><path d="M377.68,219.5s-.42-6.24,0-8.55c0,0,1.18-1.5-2.73-7.64a43.69,43.69,0,0,1-2.51-8.09l-1.81-7.95-1-6.27-1-8.37-.7-9.48V157s-1.26-11.85-1.54-14.78l-1.11-11-.84-7-.83-8.79-1-6.14L362,101V95.23s-.7-7,.7-8.93l2.23-6.83,1.53-4.74a67.46,67.46,0,0,0,1.26-10.18l.56-8.09.56-5s1.11-5.3,1.81-6.14l3.62-6.14,2.38-4.6s1.18-1.39,1.21-5.16c0,0,.6-2.79-3.17-.83L372,30.94l-2.18,2.92-.88,1.4s-2.52,3.35-2.93-1.12a8,8,0,0,1,1.67-3.9,4.82,4.82,0,0,0,1.12-3.34s-1.26-2.08-3.49,0a6.49,6.49,0,0,0-2.51,4l-1,2.09s-1.5,1.25-1.5-1.26c0,0,.7-3.46,1-4.87,0,0,.84-.57-.27-2.1,0,0-2.79-.12-2.93,2.1l-.14,2.22-.7,2.79s-2.37,4.33-3.07.14l.7-3.9L355,26.9s.28-3.08-2.37-.85l-1.12,2.52V30.8s-2.09,4.18-3.07-.56c0,0-.69-.54,0-3.34,0,0,1-2.8-1.25-.85,0,0-1.54.28-2.65,3.21V35l-.84,4.74L343,44.05s-.56,1.25-.84,6.55V60.92a14.3,14.3,0,0,1-1.26,4.46A15.52,15.52,0,0,0,339.53,71a46.3,46.3,0,0,0,.84,8.23,14.21,14.21,0,0,1,1.11,5.86,51.86,51.86,0,0,1-.84,6.69,81.42,81.42,0,0,0-2.09,9.9s-1,6.84-1.25,11.3a135.86,135.86,0,0,0,0,13.67s.42,9.76.83,13.38l1.26,11.86,1.11,7.67L342,168l.56,7.39,1,7L344,189s.42,6.55.84,8.22c0,0,.14,6.7-1.12,9.35a12.91,12.91,0,0,0,1.54,7.53l2.09,5.45Z" fill="none" stroke="#231f20" stroke-miterlimit="10" stroke-width="1.5"/><path d="M365.89,208.89a8.26,8.26,0,0,0-8.39,0" fill="none" stroke="#231f20" stroke-miterlimit="10" stroke-width="1.5"/><path d="M296.88,208.89S288.54,204,283,210" fill="none" stroke="#231f20" stroke-miterlimit="10" stroke-width="1.5"/><path d="M313.58,219.5s-1.4-10.5-1.2-15.87c0,0-3.77-18.68-3.77-22.06,0,0-2.39-23-2.39-26.43a35.56,35.56,0,0,0-2-8.15l-2.79-8.74-2.78-8.35-1.79-6.7s-5.36-12.37-5-26.09c0,0,.94-3.37,1.07-16.29,0,0-.07-2.39,2.31-7a56,56,0,0,0,5.57-17.09s4-12.52,6.36-15.69c0,0,4.57-6,4.37-12.72,0,0-.4-6.56-10.14,0,0,0-5,6-6.55,11.52,0,0-3.18,4.18-4.58-1.19,0,0,1.54-6.16,3.06-8.35a3.61,3.61,0,0,0-.4-4.9s-3.45-1.45-4.84,2.92a25.33,25.33,0,0,0-2,7,2.76,2.76,0,0,1-3,3.18s-2-2-1-5.76c0,0,3.57-2.32,2.18-7.52,0,0-2.18-3.55-5.56,0,0,0-2.19,1.56-1.59,6.92l-.1,4.18s-2.88,2-3.48-.8a25.64,25.64,0,0,1,0-6.36s1.39-3.88-2-5.52c0,0-4,.16-4,4.93l1,5.36s-.59,3.58-3.77,0a23,23,0,0,1,0-5.76s-1.19-4.11-6.36-1.26c0,0-2.19,1.85-1.79,7.62l2.39,10.73s.79,7.75.39,10.33L257.93,59s-4,6.76-4.77,11.53c0,0-2.18,5.16-2,14.11a55.17,55.17,0,0,0,2.18,13.51s1.19,5,3.38,6.16a28.71,28.71,0,0,1,1.19,8.74l-.79,10.19L256,132.29a106.33,106.33,0,0,0-1.4,12.92s-1.19,10.33-1.19,13.91c0,0,.4,11.32,1.79,16.69l2,11.72s1,8.55,1.19,12.32l.6,9V219.5Z" fill="none" stroke="#231f20" stroke-miterlimit="10" stroke-width="1.5"/><path d="M223,212.73s-5.81-2.06-8.81-.93c0,0-4.12,2.43-6,1.87" fill="none" stroke="#231f20" stroke-miterlimit="10" stroke-width="1.5"/><path d="M238.2,219.5a155.62,155.62,0,0,0-1.5-17.82s-2.06-18-4.87-26c0,0-1.13-9.37-2.63-16.3,0,0-1.12-4.69-2.43-15.37A101.8,101.8,0,0,0,224,129.92s-3-10.31-3.56-14.24c0,0-1.31-9.37-1.31-12.74a69.41,69.41,0,0,1-.75-8.81s.75-8.62,1.31-10.11c0,0,1.31-4.31,1.5-12.56a76.61,76.61,0,0,0-2.81-11.8,110,110,0,0,0-1.5-12.55s-.75-8.06,0-12l1.31-7.3a4.17,4.17,0,0,0-1.65-4.18s-3-1.44-4,4.18l-.94,5.24s-.94,2.44-2.43,1.5c0,0-.57-1.12,0-4.12a12.13,12.13,0,0,0-.25-4.87s-2.94-1.88-3.69,1.5V34s-1.31,2.25-2.43-.38V28.93s.18-2.81-1.69-4.12c0,0-2.62-1.5-3.19,3.37v3.94s1.5,2.81-1.68,2.43a8.65,8.65,0,0,1-.94-4.31V27.43a2.15,2.15,0,0,0-2.43-2.06s-1.5-.56-1.32,3.94V33.8s1.33,3.56-1.86,2.81a19.91,19.91,0,0,1-2.06-6.74s.37-4.12-3-5.25c0,0-5.43.56-5.43,4.87a21.31,21.31,0,0,0,3.56,8.25l2.81,9.74,2.25,9,2.06,8.62,1.31,7.12,1.87,7.5,2.06,6.93a78.88,78.88,0,0,1,2.63,9.18s1.12,6.93.93,10.12c0,0-.37,8.43-.37,10.49,0,0,.75,4.68,1.12,6.74l.38,2.07.19,5.43s.18,6.56-.75,9.18a56.67,56.67,0,0,0,.18,11.43l-.37,10.3v9.56s-1.31,12.55-.75,18.17c0,0,.56,13.49,1.31,17.71l1.69,12.48Z" fill="none" stroke="#231f20" stroke-miterlimit="10" stroke-width="1.5"/><path d="M155.58,201.44s-5.21-2.26-6.6-1" fill="none" stroke="#231f20" stroke-miterlimit="10" stroke-width="1.5"/><path d="M164.08,219.5a14.79,14.79,0,0,1,0-8s2.61-1.51,1-8.29a60.52,60.52,0,0,1-1.59-12.84,53,53,0,0,1-1.37-8.51s.18-13.2.87-18.93c0,0,1.74-11.63-1.73-34.73a196.13,196.13,0,0,0-9-37s.69-4.51-.87-13.89c0,0,.87-12.67,3.47-15.8,0,0,3.65-3.65,2.26-11.29l-1.39-11.46s-.35-4.51-2.78-6.59c0,0-2.25-1.39-1.56,3.47l-.13,2.6s-2.3,1.57-3.17-.69c0,0,.52-2.61-.87-4,0,0-2.78-2.43-2.6,2.78,0,0,1,3.3-2.26,2.61,0,0-1.74.52-2.26-4.86,0,0-1-3.48-3.47-.53v3.65s.17,3-2.78,1.91l-.69-1.91s-.35-3.3-2.26-4c0,0-2.26-.18-2.08,3.82,0,0,1,3.64-2.43,2.6,0,0-1.91-2.08-2.09-3.82,0,0-1.56-2.95-3.12.87,0,0-1.39.87.69,5.73l2.78,5.73s1.74,3.13,1.56,10.07a37.22,37.22,0,0,0,1,8.86s1,6.77,2.09,10.59L132.14,86s1.91,7.82,1.91,11.29l.52,13.54,1.21,13.2.18,9s0,20.48.86,26.74l.7,16.32s.17,11.28-.35,14.41c0,0-.35,8.33-1.39,10.94,0,0-1.56,2.78.52,8.85l2.61,9.21Z" fill="none" stroke="#231f20" stroke-miterlimit="10" stroke-width="1.5"/><path d="M110.4,202.82a11.09,11.09,0,0,0-8-.69" fill="none" stroke="#231f20" stroke-miterlimit="10" stroke-width="1.5"/><path d="M96.38,205.16s-2.2-1.24-4,0" fill="none" stroke="#231f20" stroke-miterlimit="10" stroke-width="1.5"/><path d="M114.12,219.5s-.55-9.12,0-13.24c0,0,.13-2.07-2.07-9.9,0,0-.41-8.25,0-15l-.18-16.5A127.77,127.77,0,0,0,113,145.48s-.06-14.45-1.12-24c0,0,.18-7.35-2.7-19.17l-2.34-9.49s.69-1.93.69-8.66c0,0,0-1.93-1.65-7.43,0,0,.27-7.42,0-12.37a103.56,103.56,0,0,1,2.75-13.62A47,47,0,0,0,110,40.57S109.3,34,107.52,30c0,0-.55-5.91,0-8.66a11.86,11.86,0,0,0-.14-6.88s-3.16-2.47-4.81,1.1c0,0-1.52,1.38-1.52,6.74l-.55,4.95s-1.1,5.23-3.3.41A20,20,0,0,1,98,20.9a6.93,6.93,0,0,0-.86-5.77s-2-2.34-2.58,1A42.1,42.1,0,0,0,94,23.47v3.21s-.69,3.71-2.34-.27a25.91,25.91,0,0,1,0-6.33L92.25,18s.42-2.91-1.51-4.41c0,0-2.06-1.64-2.06,4v8s-.83,2.61-2.34.14a32.42,32.42,0,0,1,0-5.78,9.39,9.39,0,0,0-.82-6.55s-2.75-1-2.34,4.76l.69,4s1,4.54-.73,4.82c0,0-2-1-2.44-5.78,0,0,.28-6.78-1.78-7.86,0,0-2.89.3-2.89,7.17l.69,7.43a78.51,78.51,0,0,0,.82,8,53.35,53.35,0,0,1-.55,8,40,40,0,0,0,.28,6.19l1.23,7.7.42,6.32L80,72.74l.82,5.92a24.57,24.57,0,0,0,1.1,7.15l1.79,9.48s1.92,10.73.69,16.37l-1.93,17.46s-1.37,18-2.34,21.31a99.66,99.66,0,0,0-1.37,15.13l-.55,16.77s-1.1,12.24-.69,16.5A42.16,42.16,0,0,0,76,209.42a40.1,40.1,0,0,0,1.79,7.42l1.78,2.66Z" fill="none" stroke="#231f20" stroke-miterlimit="10" stroke-width="1.5"/><path d="M40.37,206.56s-4.3-3.07-6.63,0" fill="none" stroke="#231f20" stroke-miterlimit="10" stroke-width="1.5"/><path d="M51.42,219.5s-.73-4,.86-12.94a44.14,44.14,0,0,0-1.84-17.44s-1.84-12.65-1-18.54c0,0,.73-19.65.61-24.56,0,0,.12-13.39-1.72-21.5a97.25,97.25,0,0,0-2.09-13.75s-.73-12.9-.73-16.58c0,0-.49-9.46-1.84-17.32,0,0-.5-5.28,2.08-15.23,0,0,2.21-14.24,4.18-16.45,0,0,5.16-9.71,5.28-12.41,0,0,1.84-4.79-1.35-7.49,0,0-3.69-.86-4.18,5.65l-1,2.46s-2.21,3.56-2.95,0a12.54,12.54,0,0,1,1-4.55s1.1-2.78-1.36-3.6c0,0-2.33-2.54-2.33,2.74v4s-.61,2.74-2,0a33.72,33.72,0,0,1,0-5.32,1.79,1.79,0,0,0-2.83-1.47s-1.1,1.35-.74,4.42c0,0,.86,2.95-1.35,2.95,0,0-1.35-1.11-1.47-4.92a2.22,2.22,0,0,0-1.84-3s-1.35-.21-1.23,3.72c0,0,1.23,2.91-.86,3.6,0,0-2.33-.16-2.46-3.48,0,0-.24-3.31-2.58-2.09,0,0-1.22.13-.86,4.79a15.15,15.15,0,0,1-.06,5.65,22.76,22.76,0,0,0-1.78,7.74v8.11l-.61,7.73v6.51l.61,8.23.49,7.25.5,5.77.85,5.53s.37,9.58-.49,13.88c0,0-1.47,10.8-1.47,11.17s-1.47,7-1.47,7l-2.21,7.51A126.64,126.64,0,0,0,16.42,146l-.86,8.59s-1.47,10.44-1.47,12.78c0,0,.61,10.93,0,15.1,0,0-.49,7.62,0,10.56a78.31,78.31,0,0,0,1,8.61l.25,3.22a103.18,103.18,0,0,0,.61,12.49l1,2.13Z" fill="none" stroke="#231f20" stroke-miterlimit="10" stroke-width="1.5"/></svg>